<?xml version="1.0" encoding="utf-8"?>
<!-- Generator: Adobe Illustrator 23.1.0, SVG Export Plug-In . SVG Version: 6.00 Build 0)  -->
<svg version="1.1" xmlns="http://www.w3.org/2000/svg" xmlns:xlink="http://www.w3.org/1999/xlink" x="0px" y="0px"
	 viewBox="0 0 110.9 128" style="enable-background:new 0 0 110.9 128;" xml:space="preserve">
<style type="text/css">
	.st0{display:none;}
	.st1{display:inline;}
	.st2{fill:#FFFFFF;}
	.st3{display:inline;opacity:0.13;enable-background:new    ;}
	.st4{fill:#061426;}
	.st5{fill:#15234E;}
	.st6{fill:#D4D8DD;}
	.st7{opacity:0.61;fill:#FFFFFF;}
	.st8{fill:#F28DBC;}
	.st9{opacity:0.71;fill:#FFFFFF;}
	.st10{fill:#050D1E;}
	.st11{fill:#F22E8A;}
	.st12{fill:#F28DBC;stroke:#D4D8DD;stroke-width:0.5;stroke-miterlimit:10;}
	.st13{fill:#EFE3E4;}
	.st14{fill:#08003C;}
	.st15{opacity:0.5;fill:#A9B6CA;}
	.st16{fill:#10233C;}
</style>
<g id="Layer_1" class="st0">
	<g id="Layer_63_8_" class="st1">
		<polygon points="110.8,32 110.8,96 55.4,128 11.1,102.4 10.9,102.3 0,96 0,32 55.4,0 		"/>
	</g>
	<g id="Layer_63_7_" class="st1">
		<polygon class="st2" points="101.4,37.4 101.4,90.6 55.4,117.1 9.4,90.6 9.4,37.4 55.4,10.9 		"/>
	</g>
	<g id="Layer_63_6_" class="st3">
		<path d="M55.4,10.9l-46,26.6v53.1l46,26.6l46-26.6V37.4L55.4,10.9z M99.7,89.5L55.5,115L11.4,89.5v-51L55.5,13l44.2,25.5V89.5z"/>
	</g>
</g>
<g id="Layer_2">
	<g id="Layer_63_12_">
		<g>
			<polygon class="st4" points="110,49 110,79.1 110.8,79.1 110.8,96 55.4,128 11.1,102.4 10.9,102.3 0,96 0,80.2 0.6,80.2 
				0.6,50.1 0,50.1 0,32 55.4,0 110.8,32 110.8,49 			"/>
		</g>
	</g>
	<g id="Layer_63_11_">
		<g>
			<g>
				<polygon class="st5" points="101.4,37.4 101.4,90.6 55.4,117.1 9.4,90.6 9.4,37.4 55.4,10.9 				"/>
			</g>
		</g>
	</g>
	<g id="Layer_63_10_">
		<g>
			<g>
				<g>
					<path class="st6" d="M54.2,11.6L10.6,36.7c-0.8,0.4-1.2,1.2-1.2,2.1v50.3c0,0.9,0.5,1.7,1.2,2.1l43.6,25.2
						c0.8,0.4,1.7,0.4,2.4,0l43.6-25.2c0.8-0.4,1.2-1.2,1.2-2.1V38.8c0-0.9-0.5-1.7-1.2-2.1L56.6,11.6C55.9,11.1,55,11.1,54.2,11.6z
						 M98.5,90.2l-41.8,24.1c-0.8,0.4-1.7,0.4-2.4,0L12.6,90.2c-0.8-0.4-1.2-1.2-1.2-2.1V39.9c0-0.9,0.5-1.7,1.2-2.1l41.8-24.1
						c0.8-0.4,1.7-0.4,2.4,0l41.8,24.1c0.8,0.4,1.2,1.2,1.2,2.1v48.2C99.7,89,99.3,89.8,98.5,90.2z"/>
				</g>
			</g>
		</g>
	</g>
	<path class="st7" d="M4.2,52.2v26c0,1.1-0.9,2-2,2H0.6V50.1h1.5C3.3,50.1,4.2,51.1,4.2,52.2z"/>
	<path class="st8" d="M4.1,52.2v26c0,1.1-0.9,2-2,2H0.5V50.1H2C3.2,50.1,4.1,51.1,4.1,52.2z"/>
	<rect x="0.4" y="74.4" class="st9" width="3.7" height="0.2"/>
	<rect x="0.4" y="74.6" width="3.8" height="0.1"/>
	<rect x="0.4" y="55.9" class="st9" width="3.7" height="0.2"/>
	<rect x="0.4" y="65.2" class="st9" width="3.7" height="0.2"/>
	<rect x="0.4" y="49.2" class="st10" width="0.5" height="38.8"/>
	<rect x="0.4" y="56.1" width="3.8" height="0.2"/>
	<rect x="0.4" y="65.3" width="3.8" height="0.2"/>
	<path class="st7" d="M106.7,51.1v26c0,1.1,0.9,2,2,2h1.5V49h-1.5C107.6,49,106.7,49.9,106.7,51.1z"/>
	<path class="st8" d="M106.9,51.1v26c0,1.1,0.9,2,2,2h1.5V49h-1.5C107.8,49,106.9,49.9,106.9,51.1z"/>
	<rect x="106.8" y="73.3" class="st9" width="3.7" height="0.2"/>
	<rect x="106.7" y="73.5" width="3.7" height="0.1"/>
	<rect x="106.8" y="54.8" class="st9" width="3.7" height="0.2"/>
	<rect x="106.8" y="64.1" class="st9" width="3.7" height="0.2"/>
	<polyline class="st10" points="110.4,86.9 110.4,48.1 110,48.1 110,86.9 	"/>
	<rect x="106.7" y="55" width="3.7" height="0.2"/>
	<rect x="106.7" y="64.2" width="3.7" height="0.2"/>
	<circle class="st11" cx="55.4" cy="63.2" r="37.9"/>
	<g>
		<path class="st12" d="M26.3,80.2c0.3,3.7-6.2,7.3-6.2,7.3c-6-4.5-5.6-7.3-5.6-7.3c0.2-3.8,4.7-3.9,5.9-1.3
			C21.6,76.1,26.2,76.8,26.3,80.2z"/>
	</g>
	<g>
		<path class="st12" d="M26.8,66c0.2,2.5-4.3,5.1-4.3,5.1c-4.2-3.1-3.9-5.1-3.9-5.1c0.2-2.6,3.3-2.7,4.1-0.9
			C23.6,63.1,26.8,63.6,26.8,66z"/>
	</g>
	<g>
		<path class="st12" d="M96.7,70.1c0.2,3-5,5.9-5,5.9c-4.9-3.7-4.5-5.9-4.5-5.9C87.4,67,91,66.9,92,69C93,66.7,96.7,67.3,96.7,70.1z
			"/>
	</g>
	<g>
		<path class="st12" d="M97.1,45.9c0.4,4.8-8,9.5-8,9.5c-7.8-5.9-7.3-9.5-7.3-9.5c0.3-4.9,6.1-5.1,7.7-1.7
			C91,40.5,97,41.5,97.1,45.9z"/>
	</g>
	<path class="st13" d="M34.7,73.5C34.8,73.5,34.8,73.5,34.7,73.5c0.1,0.6,0.1,1.3,0.1,1.9c0.1,3.8,0.2,7.6,0.3,11.4
		c0,0.8,0.4,1.1,1.2,0.9c0.4-0.1,0.8-0.4,1.1-0.6c1.2-0.9,2.4-1.9,3.6-2.8c0.5-0.4,0.8-0.3,1.2,0.1c0.9,1,1.9,2.1,2.8,3.1
		c0.9,0.9,1.1,0.9,2.2,0.2c1.3-0.9,2.6-1.9,3.9-2.9c0.4-0.3,0.6-0.4,1,0c1.1,1.3,2.3,2.6,3.4,3.9c0.5,0.5,0.8,0.6,1.4,0.2
		c0.9-0.6,1.7-1.2,2.5-1.8c0.7-0.5,1.3-1,2-1.5c0.2-0.1,0.6-0.1,0.7,0c1,1,2,2.1,2.9,3.2c0.9,1.1,1.5,1.1,2.5,0.2
		c0.9-0.8,1.7-1.5,2.6-2.3c1-0.9,1-0.9,1.9,0c0.7,0.7,1.5,1.4,2.2,2.1c0.4,0.4,1,0.5,1.5,0.3c0.5-0.2,0.5-0.7,0.5-1.2
		c0-1.1,0.1-2.2,0.1-3.3c0.2-6.1,0.3-12.3,0.5-18.4c0.1-2,0.1-4.1,0.2-6.1c0-1.2-0.1-2.3-1-3.2c-0.2-0.1-0.2-0.5-0.2-0.7
		c0.1-2.2,0.3-4.5,0.4-6.7c0.2-2.7,0.3-5.3,0.4-8c0.1-0.9-0.3-1.5-1-2c-1.4-1-2.9-1.3-4.5-0.9c-0.8,0.2-1.5,0.7-1.7,1.5
		c-0.7,2.2-1.5,4.3-2.2,6.4c-0.3,0.9-0.4,0.9-1.2,0.4c-3-2-6.3-2.9-9.9-3c-4.1-0.1-7.9,0.8-11.3,3.2c-0.5,0.3-0.8,0.3-0.9-0.3
		c-0.1-0.2-0.1-0.5-0.2-0.7c-0.7-2-1.4-4-2-6c-0.3-0.9-0.9-1.3-1.8-1.6c-1.4-0.4-2.8,0-4.1,0.7c-1,0.6-1.5,1.3-1.4,2.5
		c0.3,4.6,0.6,9.3,0.9,13.9c0,0.7,0.1,1.4-0.4,2c-0.2,0.2-0.3,0.6-0.3,0.9c-0.1,1.6-0.1,3.2-0.1,4.7C34.7,66.8,34.7,70.2,34.7,73.5z
		"/>
	<path class="st14" d="M34.7,73.5c0-3.4,0-6.7,0-10.1c0-1.6,0.1-3.2,0.1-4.7c0-0.3,0.1-0.6,0.3-0.9c0.5-0.6,0.4-1.3,0.4-2
		c-0.3-4.6-0.5-9.3-0.9-13.9c-0.1-1.2,0.4-2,1.4-2.5c1.3-0.7,2.6-1.1,4.1-0.7c0.9,0.2,1.5,0.7,1.8,1.6c0.7,2,1.4,4,2,6
		c0.1,0.2,0.2,0.5,0.2,0.7c0.2,0.6,0.4,0.6,0.9,0.3c3.4-2.3,7.3-3.3,11.3-3.2c3.5,0.1,6.9,1.1,9.9,3c0.8,0.5,0.9,0.5,1.2-0.4
		c0.7-2.1,1.5-4.3,2.2-6.4c0.3-0.9,0.9-1.4,1.7-1.5c1.6-0.3,3.1-0.1,4.5,0.9c0.7,0.5,1,1.1,1,2c-0.2,2.7-0.3,5.3-0.4,8
		c-0.1,2.2-0.3,4.5-0.4,6.7c0,0.2,0,0.6,0.2,0.7c0.9,0.9,1,2,1,3.2c-0.1,2-0.1,4-0.2,6.1c-0.2,6.1-0.3,12.3-0.5,18.4
		c0,1.1-0.1,2.2-0.1,3.3c0,0.5,0,1-0.5,1.2c-0.6,0.2-1.1,0.1-1.5-0.3c-0.7-0.7-1.5-1.4-2.2-2.1c-1-0.9-1-0.9-1.9,0
		c-0.9,0.8-1.7,1.5-2.6,2.3c-1.1,0.9-1.6,0.8-2.5-0.2c-0.9-1.1-1.9-2.2-2.9-3.2c-0.1-0.1-0.6-0.1-0.7,0c-0.7,0.4-1.3,1-2,1.5
		c-0.8,0.6-1.7,1.2-2.5,1.8c-0.6,0.4-1,0.3-1.4-0.2c-1.1-1.3-2.3-2.6-3.4-3.9c-0.4-0.4-0.7-0.3-1,0c-1.3,1-2.6,1.9-3.9,2.9
		c-1.1,0.8-1.3,0.8-2.2-0.2c-1-1-1.9-2-2.8-3.1c-0.4-0.4-0.7-0.5-1.2-0.1c-1.2,1-2.4,1.9-3.6,2.8c-0.3,0.3-0.7,0.5-1.1,0.6
		c-0.7,0.2-1.1-0.1-1.2-0.9c-0.1-3.8-0.2-7.6-0.3-11.4C34.8,74.8,34.8,74.2,34.7,73.5C34.8,73.5,34.8,73.5,34.7,73.5z M36.1,58.4
		c0,1-0.1,1.9-0.1,2.8c0,2.8,0.1,5.7,0.1,8.5c0.1,3.6,0.1,7.2,0.2,10.8c0,1.6,0,3.3,0.1,4.9c0,0.2,0.1,0.4,0.2,0.5
		c0,0,0.3-0.1,0.4-0.1c1.3-0.9,2.6-1.8,3.9-2.8c0.9-0.7,1.2-0.7,2,0.2c0.8,0.9,1.6,1.9,2.5,2.8c0.7,0.8,1,0.8,1.9,0.2
		c1.3-1,2.7-1.9,4-2.9c0.4-0.3,0.7-0.3,1.1,0c0.2,0.2,0.5,0.4,0.7,0.6c0.9,1,1.8,2.1,2.7,3.2c0.6,0.7,0.8,0.7,1.6,0.2
		c1.3-0.9,2.5-1.8,3.8-2.7c1-0.7,1.3-0.7,2.1,0.2c0.9,1,1.7,1.9,2.5,2.9c0.4,0.5,0.7,0.5,1.1,0.1c1.1-1,2.2-2,3.3-3
		c0.6-0.6,1.1-0.6,1.8-0.1c0.3,0.3,0.6,0.6,0.9,0.8c0.7,0.6,1.3,1.1,2,1.7c0.1-0.2,0.1-0.3,0.1-0.3c0.2-3.3,0.3-6.6,0.5-9.9
		c0.1-2.3,0.1-4.6,0.3-6.9c0.4-3.3,0.7-6.6,0.6-9.9c0-0.5,0-0.9-0.1-1.4c-0.1-0.4-0.2-0.6-0.7-0.4c-0.5,0.2-1.1,0.2-1.6,0.1
		c-1.4-0.3-2.5-1.1-3.5-2c-2-1.6-3.6-3.5-4.5-6c-0.4-1-0.5-2,0.5-2.7c-1.7-1.9-7.2-3.4-12.5-3.1c-3.1,0.2-6,1.2-8.7,3
		c1,0.8,1,1.7,0.6,2.7c-1.1,2.9-3,5-5.4,6.8C39.1,57.9,37.8,58.5,36.1,58.4z M75.8,42.5c-1.2,0.1-2.3,0.3-3.3,0.4
		c-0.5,0-0.8,0.2-0.9,0.7c-0.9,3-1.9,6-2.8,9c-0.2,0.6-0.1,1.2,0.3,1.7c1.1,1.5,2.6,2.5,4.3,3.2c1.1,0.4,1.2,0.3,1.4-0.8
		c0-0.1,0-0.2,0-0.3c0.3-4.3,0.6-8.5,1-12.8C75.8,43.2,75.8,42.9,75.8,42.5z M35.6,42.6c0,0.2,0,0.4,0,0.6c0.2,2.6,0.4,5.1,0.6,7.7
		c0.2,2.1,0.4,4.1,0.5,6.2c0,0.7,0.4,0.7,0.9,0.6c1.9-0.6,3.5-1.7,4.7-3.3c0.4-0.6,0.5-1.2,0.3-1.9c-0.3-1-0.7-2.1-1-3.2
		c-0.6-1.9-1.2-3.7-1.8-5.6c-0.1-0.3-0.4-0.7-0.6-0.7C38,42.8,36.9,42.7,35.6,42.6z M66.3,50.8c0.3,0.5,0.6,1,0.9,1.6
		c0.1,0.2,0.3,0.3,0.5,0.4c0.1-0.2,0.3-0.4,0.4-0.6c0.8-3,1.6-6,2.4-9.1c0-0.1,0.1-0.3,0.1-0.4c0-0.2-0.1-0.4-0.2-0.4
		c-0.1,0-0.3,0-0.5,0.1c-0.1,0.1-0.2,0.3-0.3,0.4c-1,2.2-1.9,4.4-2.8,6.5C66.6,49.8,66.5,50.3,66.3,50.8z M45,50.5
		c-0.1-0.2-0.1-0.6-0.3-0.9c-1-2.2-1.9-4.4-2.9-6.7c-0.1-0.2-0.2-0.3-0.3-0.5c-0.1-0.1-0.3-0.1-0.4-0.1c-0.1,0-0.2,0.2-0.2,0.4
		c0,0.2,0,0.3,0.1,0.5c0.7,2.8,1.5,5.6,2.2,8.4c0.1,0.3,0.1,0.6,0.3,0.9c0.1,0.1,0.4,0.2,0.5,0.1C44.4,52.1,44.9,51.5,45,50.5z
		 M72.8,39.2c-0.2,0-0.4,0-0.6,0c-0.5,0.2-1.1,0.1-1.3,0.7c-0.1,0.5,0.3,1.3,0.9,1.6c0.1,0.1,0.2,0.1,0.3,0.1
		c1.2,0.4,2.3,0.2,3.4-0.4c0.5-0.3,0.6-0.7,0.1-1.1C74.7,39.8,73.9,39.2,72.8,39.2z M38,42.1c1.1-0.1,1.9-0.4,2.4-1.4
		c0.3-0.6,0.2-1-0.5-1.3c-1-0.4-3.5,0.1-4.2,0.9c-0.3,0.4-0.3,0.8,0.1,1C36.6,41.6,37.3,41.8,38,42.1z"/>
	<path class="st2" d="M75.8,42.5c0,0.3-0.1,0.7-0.1,1c-0.3,4.3-0.6,8.5-1,12.8c0,0.1,0,0.2,0,0.3c-0.2,1.1-0.3,1.3-1.4,0.8
		c-1.7-0.7-3.2-1.7-4.3-3.2c-0.4-0.5-0.5-1.1-0.3-1.7c0.9-3,1.9-6,2.8-9c0.1-0.5,0.4-0.6,0.9-0.7C73.6,42.9,74.6,42.7,75.8,42.5z"/>
	<path class="st2" d="M35.6,42.6c1.3,0.2,2.4,0.3,3.6,0.5c0.3,0,0.5,0.4,0.6,0.7c0.6,1.9,1.2,3.7,1.8,5.6c0.3,1.1,0.6,2.1,1,3.2
		c0.2,0.7,0.2,1.3-0.3,1.9C41,56,39.4,57,37.6,57.7c-0.5,0.2-0.8,0.1-0.9-0.6c-0.1-2.1-0.3-4.1-0.5-6.2c-0.2-2.6-0.4-5.1-0.6-7.7
		C35.6,43,35.6,42.7,35.6,42.6z"/>
	<path class="st15" d="M66.3,50.8c0.2-0.5,0.3-1,0.4-1.3c0.9-2.2,1.9-4.4,2.8-6.5c0.1-0.2,0.2-0.3,0.3-0.4c0.1-0.1,0.3-0.2,0.5-0.1
		c0.1,0,0.2,0.3,0.2,0.4c0,0.1,0,0.3-0.1,0.4c-0.8,3-1.6,6-2.4,9.1c-0.1,0.2-0.2,0.4-0.4,0.6c-0.2-0.1-0.4-0.2-0.5-0.4
		C66.9,51.8,66.6,51.3,66.3,50.8z"/>
	<path class="st15" d="M45,50.5c-0.1,1-0.6,1.6-1.1,2.1c0,0.1-0.4,0-0.5-0.1c-0.1-0.3-0.2-0.6-0.3-0.9c-0.7-2.8-1.5-5.6-2.2-8.4
		c0-0.2-0.1-0.3-0.1-0.5c0-0.1,0.1-0.3,0.2-0.4c0.1,0,0.3,0,0.4,0.1c0.1,0.1,0.3,0.3,0.3,0.5c1,2.2,1.9,4.4,2.9,6.7
		C44.8,49.9,44.9,50.3,45,50.5z"/>
	<path class="st2" d="M72.8,39.2c1.1,0,2,0.5,2.8,1.1c0.5,0.3,0.4,0.8-0.1,1.1c-1.1,0.6-2.2,0.8-3.4,0.4c-0.1,0-0.2-0.1-0.3-0.1
		c-0.6-0.3-1.1-1.1-0.9-1.6c0.2-0.7,0.8-0.6,1.3-0.7C72.3,39.2,72.6,39.2,72.8,39.2z"/>
	<path class="st2" d="M38,42.1c-0.7-0.2-1.5-0.5-2.1-0.8c-0.5-0.2-0.5-0.6-0.1-1c0.7-0.8,3.2-1.3,4.2-0.9c0.6,0.3,0.8,0.6,0.5,1.3
		C40,41.7,39.1,42,38,42.1z"/>
	<path class="st8" d="M55.8,81.2c-4.3-0.1-8.6-0.1-12.9-0.2c-0.3,0-0.5,0-0.8-0.1c-1.3-0.1-1.5-0.3-1.5-1.6c0-1.4,0.1-2.8,0.3-4.2
		c0-0.2,0.3-0.5,0.5-0.6c0.4-0.2,0.9-0.3,1.3-0.3c4.8,0.1,9.7,0.2,14.5,0.3c3.8,0,7.6-0.2,11.4-0.3c0.5,0,1,0,1.5,0
		c0.5,0,0.7,0.2,0.7,0.7c0.1,1.4,0.2,2.8,0.2,4.2c0,0.3,0,0.5,0,0.8c0,0.7-0.4,1-1,1c-1.7,0.1-3.3,0.2-5,0.2c-3,0-6.1,0-9.1,0
		C55.8,81.2,55.8,81.2,55.8,81.2z"/>
	<path class="st16" d="M56.4,49.1c3.3,0.1,6.3,1.7,8.1,5.2c2.5,4.8,2.2,9.4-1.1,13.8C59.7,73,51.8,73,48,68.1
		c-3.3-4.3-3.7-9-1.1-13.8C48.8,50.8,51.9,49.1,56.4,49.1z M55.7,49.9c-0.6,0-1.2,0-1.8,0.1c-3,0.5-5.1,2.3-6.6,4.8
		C44.5,59.3,45.8,66,50,69.2c3.8,2.8,8.9,2.5,12.3-0.8c2.6-2.5,3.5-5.6,3.3-9.2C65.2,54.1,60.9,49.5,55.7,49.9z"/>
	<path class="st8" d="M55.7,49.9c5.2-0.4,9.5,4.2,9.9,9.3c0.2,3.5-0.7,6.6-3.3,9.2c-3.4,3.3-8.5,3.6-12.3,0.8
		c-4.2-3.1-5.5-9.9-2.8-14.4c1.5-2.5,3.6-4.3,6.6-4.8C54.4,49.9,55.1,49.9,55.7,49.9z M56.8,56.4c0,0,0,0.1,0,0.1c1-0.1,2-0.2,3-0.4
		c0.5-0.1,1-0.6,1.2-1c0.4-1.2,0-1.9-1-2.6c-2.3-1.5-4.8-1.5-7.3-0.6c-1.5,0.5-2.6,1.6-3.4,3c-0.3,0.7-0.4,1.3,0.1,1.9
		c0.5,0.6,1.1,0.4,1.8,0.2c0.6-0.2,1.2-0.5,1.9-0.5C54.3,56.4,55.6,56.4,56.8,56.4z M49,58.8c0-0.8-0.5-1.4-1.1-1.4
		c-0.6,0-1.2,0.7-1.2,1.5c0,0.8,0.4,1.4,1.1,1.4C48.5,60.3,49,59.6,49,58.8z"/>
	<path class="st2" d="M56.8,56.4c-1.3,0-2.5-0.1-3.7,0c-0.6,0-1.3,0.3-1.9,0.5c-0.6,0.2-1.3,0.4-1.8-0.2c-0.5-0.6-0.4-1.3-0.1-1.9
		c0.7-1.4,1.9-2.5,3.4-3c2.5-0.9,5-0.8,7.3,0.6c1.1,0.7,1.5,1.5,1,2.6c-0.2,0.4-0.7,0.9-1.2,1c-1,0.2-2,0.3-3,0.4
		C56.8,56.5,56.8,56.5,56.8,56.4z"/>
	<path class="st2" d="M49,58.8c0,0.8-0.5,1.5-1.2,1.5c-0.6,0-1.1-0.6-1.1-1.4c0-0.8,0.6-1.5,1.2-1.5C48.5,57.3,49,58,49,58.8z"/>
	<path class="st2" d="M67.7,77.4c-0.3,0.6-0.6,1.1-0.9,1.6c-0.4,0.7-0.7,0.7-1.2,0.1c-0.4-0.5-0.8-1-1.3-1.7c-0.3,0.6-0.6,1-0.8,1.5
		c-0.5,0.8-0.8,0.8-1.4,0.1c-0.2-0.2-0.4-0.5-0.6-0.7c-0.2-0.2-0.3-0.5-0.6-0.9c-0.3,0.6-0.6,1-0.8,1.5c-0.4,0.8-0.8,0.9-1.3,0.1
		c-0.2-0.2-0.4-0.5-0.6-0.7c-0.2-0.2-0.4-0.5-0.6-0.9c-0.3,0.6-0.6,1.1-0.9,1.5c-0.2,0.3-0.5,0.6-0.7,0.6c-0.2,0-0.5-0.4-0.7-0.6
		c-0.3-0.4-0.5-0.9-0.8-1.4c-0.5,0.6-0.8,1.1-1.2,1.6c-0.5,0.7-0.9,0.6-1.3-0.1c-0.3-0.5-0.5-0.9-0.8-1.5c-0.5,0.6-0.8,1.1-1.2,1.6
		c-0.5,0.7-0.9,0.7-1.4-0.1c-0.2-0.4-0.5-0.9-0.8-1.3c0,0-0.1,0-0.2-0.1c-0.4,0.5-0.7,0.9-1.1,1.4c-0.6,0.7-0.9,0.7-1.4-0.1
		c-0.2-0.5-0.5-0.9-0.8-1.5c-0.5,0.6-0.9,1.2-1.3,1.7c-0.1,0.2-0.4,0.2-0.6,0.3c0-0.3-0.2-0.6-0.1-0.8c0.5-0.8,1-1.7,1.6-2.4
		c0.3-0.4,0.7-0.3,1,0.1c0.3,0.4,0.4,0.8,0.7,1.2c0.1,0.2,0.2,0.4,0.4,0.7c0.4-0.6,0.7-1.1,1-1.6c0.5-0.9,1-0.8,1.5,0
		c0.3,0.5,0.5,1,0.9,1.6c0.3-0.4,0.5-0.6,0.7-0.9c0.2-0.3,0.3-0.5,0.5-0.8c0.5-0.8,0.9-0.8,1.4,0.1c0.2,0.4,0.5,0.9,0.7,1.3
		c0,0,0.1,0,0.2,0.1c0.3-0.5,0.6-1,0.9-1.4c0.6-0.9,1-0.9,1.5,0.1c0.2,0.4,0.4,0.8,0.6,1.2c0,0,0.1,0.1,0.2,0.2
		c0.2-0.5,0.5-0.9,0.7-1.4c0.5-1,1-1,1.5,0c0.3,0.5,0.6,0.9,1,1.6c0.3-0.7,0.6-1.2,0.9-1.6c0.5-0.8,0.9-0.9,1.4-0.1
		c0.4,0.5,0.7,1.1,1.2,1.8c0.3-0.6,0.5-1.1,0.8-1.5c0.6-1.1,1-1.1,1.7-0.1c0.3,0.4,0.6,0.9,0.9,1.4c0.3-0.6,0.6-1.1,0.8-1.5
		c0.5-1,0.9-1,1.5,0c0.4,0.6,0.7,1.1,1.1,1.7c0.1,0.1,0.2,0.3,0.2,0.5c0,0.2-0.1,0.4-0.2,0.6c-0.2-0.1-0.4-0.1-0.5-0.2
		C68.6,78.6,68.2,78.1,67.7,77.4z"/>
</g>
</svg>
