<?xml version="1.0" encoding="utf-8"?>
<!-- Generator: Adobe Illustrator 23.1.0, SVG Export Plug-In . SVG Version: 6.00 Build 0)  -->
<svg version="1.1" xmlns="http://www.w3.org/2000/svg" xmlns:xlink="http://www.w3.org/1999/xlink" x="0px" y="0px"
	 viewBox="0 0 110.9 128" style="enable-background:new 0 0 110.9 128;" xml:space="preserve">
<style type="text/css">
	.st0{display:none;}
	.st1{display:inline;}
	.st2{fill:#FFFFFF;}
	.st3{display:inline;opacity:0.13;enable-background:new    ;}
	.st4{fill:#020659;}
	.st5{fill:#0DAAA0;}
	.st6{enable-background:new    ;}
	.st7{fill:#F5E594;}
	.st8{opacity:0.71;fill:#FFFFFF;}
	.st9{opacity:0.61;fill:#FFFFFF;}
	.st10{opacity:0.5;fill:#A9B6CA;}
	.st11{fill:#01B3A1;}
	.st12{fill:#10233C;}
	.st13{fill:#F2B705;}
	.st14{fill:none;stroke:#F3EBD3;stroke-width:0.5;stroke-miterlimit:10;}
	.st15{fill:none;stroke:#F3EBD3;stroke-width:0.4836;stroke-miterlimit:10;}
	.st16{fill:#F2B705;stroke:#F3EBD3;stroke-width:0.5;stroke-miterlimit:10;}
</style>
<g id="Layer_1" class="st0">
	<g id="Layer_63_8_" class="st1">
		<polygon points="110.8,32 110.8,96 55.4,128 11.1,102.4 10.9,102.3 0,96 0,32 55.4,0 		"/>
	</g>
	<g id="Layer_63_7_" class="st1">
		<polygon class="st2" points="101.4,37.4 101.4,90.6 55.4,117.1 9.4,90.6 9.4,37.4 55.4,10.9 		"/>
	</g>
	<g id="Layer_63_6_" class="st3">
		<path d="M55.4,10.9l-46,26.6v53.1l46,26.6l46-26.6V37.4L55.4,10.9z M99.7,89.5L55.5,115L11.4,89.5v-51L55.5,13l44.2,25.5V89.5z"/>
	</g>
</g>
<g id="Layer_2">
	<g id="Layer_63_21_">
		<g>
			<polygon class="st4" points="110,49 110,79.1 110.9,79.1 110.9,96 55.4,128 11.1,102.4 10.9,102.3 0,96 0,80.2 0.6,80.2 
				0.6,50.1 0,50.1 0,32 55.4,0 110.9,32 110.9,49 			"/>
		</g>
	</g>
	<g id="Layer_63_20_">
		<g>
			<g>
				<polygon class="st5" points="101.5,37.4 101.5,90.6 55.4,117.1 9.4,90.6 9.4,37.4 55.4,10.9 				"/>
			</g>
		</g>
	</g>
	<g id="Layer_63_19_" class="st6">
		<path class="st7" d="M55.4,10.9l-46,26.6v53.1l46,26.6l46-26.6V37.4L55.4,10.9z M99.7,89.5L55.5,115L11.4,89.5v-51L55.5,13
			l44.2,25.5V89.5z"/>
	</g>
	<ellipse class="st7" cx="56.6" cy="64.4" rx="37.9" ry="37.9"/>
	<path class="st7" d="M4.1,52.2v26c0,1.1-0.9,2-2.1,2H0.5V50.1H2C3.2,50.1,4.1,51.1,4.1,52.2z"/>
	<rect x="0.4" y="74.5" class="st8" width="3.7" height="0.2"/>
	<rect x="0.4" y="74.6" width="3.8" height="0.1"/>
	<rect x="0.4" y="55.9" class="st8" width="3.7" height="0.2"/>
	<rect x="0.4" y="65.2" class="st8" width="3.7" height="0.2"/>
	<rect x="0.4" y="49.2" class="st4" width="0.5" height="38.7"/>
	<rect x="0.4" y="56.1" width="3.8" height="0.2"/>
	<rect x="0.4" y="65.3" width="3.8" height="0.2"/>
	<path class="st9" d="M106.8,51.1v26c0,1.1,0.9,2,2,2h1.5V49h-1.5C107.7,49,106.8,49.9,106.8,51.1z"/>
	<path class="st7" d="M106.9,51.1v26c0,1.1,0.9,2,2,2h1.5V49h-1.5C107.8,49,106.9,50,106.9,51.1z"/>
	<rect x="106.8" y="73.3" class="st8" width="3.7" height="0.2"/>
	<rect x="106.8" y="73.5" width="3.7" height="0.1"/>
	<rect x="106.8" y="54.8" class="st8" width="3.7" height="0.2"/>
	<rect x="106.8" y="64.1" class="st8" width="3.7" height="0.2"/>
	<polyline class="st4" points="110.5,86.9 110.5,48.1 110,48.1 110,86.9 	"/>
	<rect x="106.8" y="55" width="3.7" height="0.2"/>
	<rect x="106.8" y="64.2" width="3.7" height="0.2"/>
	<path class="st2" d="M82.1,37.2c0-2.7-0.6-3.7-2.4-4.3c-0.8-0.3-1.7-0.5-2.5-0.5c-2.2-0.1-3.5,0.3-4.2,2.8
		c-0.7,2.3-1.5,4.5-2.3,6.8c-0.5,1.5-0.5,1.5-1.8,0.6c-0.2-0.1-0.3-0.2-0.5-0.3c-4.4-2.5-9.1-3.6-14.1-3.1c-4,0.3-7.6,1.5-11,3.7
		c-0.8,0.5-0.9,0.5-1.3-0.5c-0.9-2.6-1.8-5.2-2.6-7.9c-0.3-1.1-1.1-1.7-2.1-1.9c-1.9-0.5-3.7-0.1-5.4,0.9c-1.1,0.6-1.6,1.5-1.5,2.8
		c0.1,1.5,0.1,3,0.2,4.5c0.3,4.5,0.6,9,0.9,13.5c0,0.4-0.2,0.9-0.4,1.4c-0.2,0.8-0.7,1.7-0.7,2.5c-0.1,3,0,6,0.1,9
		c0.2,8,0.3,16.1,0.5,24.1c0,1.1,0.5,1.5,1.6,1.2c0.4-0.1,0.8-0.4,1.1-0.6c1.5-1.2,3-2.3,4.5-3.5c0.5-0.4,0.8-0.3,1.3,0.2
		c1.1,1.3,2.2,2.6,3.4,3.8c1.1,1.1,1.2,1.5,2.8,0.3c1.5-1.1,3-2.1,4.4-3.2c0.7-0.5,1.1-0.5,1.7,0.1c1.2,1.5,2.6,3,3.9,4.4
		c0.7,0.8,1,0.9,2,0.3c1.7-1.2,3.4-2.4,5.1-3.7c0.5-0.4,0.8-0.4,1.2,0.1c1.2,1.4,2.4,2.7,3.6,4.1c0.9,1.1,1.7,1.2,2.7,0.2
		c1.2-1,2.3-2.1,3.5-3.1c0.9-0.8,0.9-0.8,1.8,0c1.2,1.1,2.3,2.3,3.5,3.3c0.4,0.3,1.1,0.5,1.5,0.4c0.3-0.1,0.6-0.7,0.6-1.1
		c0.1-1.6,0.2-3.3,0.2-4.9c0.1-4,0.2-8.1,0.3-12.1c0.1-3.7,0.3-7.4,0.3-11.1c0-3-0.1-6.1,0.4-9.1c0.1-0.8,0-1.5-0.8-1.9
		c-0.7-0.3-0.9-0.8-0.8-1.6c0.1-1.6,0.3-3.2,0.4-4.7C81.6,44.9,81.9,40.8,82.1,37.2z"/>
	<path class="st4" d="M82.1,37.2c-0.2,3.6-0.5,7.7-0.7,11.8c-0.1,1.6-0.2,3.2-0.4,4.7c-0.1,0.7,0.2,1.3,0.8,1.6c0.8,0.4,1,1,0.8,1.9
		c-0.5,3-0.4,6-0.4,9.1c0,3.7-0.2,7.4-0.3,11.1c-0.1,4-0.2,8.1-0.3,12.1c0,1.6-0.1,3.3-0.2,4.9c0,0.4-0.3,1.1-0.6,1.1
		c-0.5,0.1-1.2,0-1.5-0.4c-1.2-1-2.4-2.2-3.5-3.3c-0.9-0.8-0.9-0.8-1.8,0c-1.2,1-2.3,2.1-3.5,3.1c-1.1,0.9-1.8,0.8-2.7-0.2
		c-1.2-1.4-2.5-2.7-3.6-4.1c-0.4-0.5-0.7-0.5-1.2-0.1c-1.7,1.2-3.4,2.5-5.1,3.7c-0.9,0.6-1.2,0.6-2-0.3c-1.3-1.5-2.6-2.9-3.9-4.4
		c-0.6-0.7-1-0.6-1.7-0.1c-1.5,1.1-3,2.1-4.4,3.2c-1.6,1.2-1.7,0.7-2.8-0.3c-1.2-1.2-2.3-2.5-3.4-3.8c-0.4-0.5-0.7-0.6-1.3-0.2
		c-1.5,1.2-3,2.4-4.5,3.5c-0.3,0.3-0.7,0.5-1.1,0.6c-1,0.3-1.5-0.1-1.6-1.2c-0.2-8-0.3-16.1-0.5-24.1c-0.1-3-0.1-6-0.1-9
		c0-0.8,0.4-1.7,0.7-2.5c0.1-0.5,0.4-0.9,0.4-1.4c-0.3-4.5-0.6-9-0.9-13.5c-0.1-1.5-0.1-3-0.2-4.5C30.4,35,31,34.1,32,33.4
		c1.7-1,3.4-1.5,5.4-0.9c1,0.3,1.7,0.9,2.1,1.9c0.9,2.6,1.8,5.3,2.6,7.9c0.3,1,0.5,1,1.3,0.5c3.3-2.2,7-3.3,11-3.7
		c5-0.4,9.7,0.6,14.1,3.1c0.2,0.1,0.3,0.2,0.5,0.3c1.3,0.8,1.3,0.8,1.8-0.6c0.8-2.3,1.6-4.5,2.3-6.8c0.7-2.4,2-2.8,4.2-2.8
		c0.8,0,1.7,0.2,2.5,0.5C81.5,33.5,82.1,34.5,82.1,37.2z M38.3,74.1c0.2,0.9,0.5,1.7,0.5,2.5c0,2.6-0.1,5.1-0.3,7.7
		c0,0.7,0.1,1,0.9,1c11.1,0,22.2,0,33.3,0c1.1,0,1.1-0.1,1.2-1.2c0.1-3.3-0.3-6.6,0.3-9.9c-0.3,0.1-0.6,0.3-0.9,0.4
		c1.6-1.6,3.2-3.1,4.8-4.6c1.6-1.5,2.9-3,2.6-5.4c-0.1-0.4,0-0.9,0.1-1.3c0-2,0.1-4.1,0.1-6.1c0-0.4,0-1-0.7-0.7
		c-1.1,0.4-2.2,0.1-3.2-0.4c-3.7-2-6.5-4.9-8.3-8.7c-0.6-1.3-1-2.7,0.3-3.9c-4.3-5-21.1-5-25.6,0c0.9,0.8,1,1.8,0.7,2.8
		c-0.1,0.5-0.3,1.1-0.6,1.6c-1.6,3.2-4,5.7-7,7.6c-0.9,0.6-2.1,1-3.1,1.1c-0.9,0.1-1.1,0.4-1.1,1.2c0,0.4,0,0.9,0,1.3
		c0,2.5,0.1,5.1,0.1,7.6c0,0.9,0.3,1.6,0.9,2.2c1.9,1.8,3.7,3.6,5.6,5.4c0.1,0.1,0.3,0.2,0.4,0.4c0,0-0.1,0.1-0.1,0.1
		C38.9,74.4,38.6,74.3,38.3,74.1z M31.8,37.3c0,0.1,0,0.4,0,0.6c0.1,0.9,0.1,1.7,0.2,2.6c0.4,4.8,0.8,9.6,1.1,14.5
		c0.1,0.9,0.2,1,1.1,0.7c2.3-0.8,4.4-2,5.8-4.2c0.3-0.5,0.4-1.2,0.3-1.8c-0.2-1-0.6-2-0.9-3c-0.8-2.7-1.6-5.3-2.5-8
		c-0.1-0.3-0.4-0.8-0.7-0.8C34.8,37.6,33.3,37.5,31.8,37.3z M80.9,37.3c-1.5,0.2-3,0.3-4.4,0.5c-0.2,0-0.6,0.4-0.6,0.6
		c-1.2,3.7-2.4,7.5-3.5,11.3c-0.1,0.5-0.1,1.2,0.2,1.6c1.4,2.2,3.5,3.5,5.9,4.4c0.6,0.2,1.1,0.1,1-0.7c0-0.4,0.1-0.8,0.1-1.2
		c0.3-4.2,0.6-8.3,0.9-12.5C80.7,40,80.8,38.6,80.9,37.3z M71.2,49.8c0.1-0.3,0.3-0.6,0.3-0.9c1-3.7,2-7.4,2.9-11.1
		c0.1-0.3-0.1-0.6-0.2-0.9c-0.3,0.2-0.7,0.4-0.8,0.7c-1.3,2.8-2.5,5.7-3.7,8.6C69.2,47.4,69.9,49,71.2,49.8z M41.5,49.9
		c1.5-1.3,2-2.6,1.5-3.8c-1.2-2.7-2.4-5.5-3.6-8.3c-0.1-0.2-0.3-0.5-0.5-0.6c-0.4-0.3-0.7-0.2-0.7,0.3c0,0.2,0,0.4,0.1,0.6
		c0.9,3.6,1.9,7.1,2.8,10.7C41.2,49.1,41.4,49.4,41.5,49.9z M77.8,36.7c0.9-0.3,1.8-0.5,2.6-0.8c0.7-0.3,0.8-0.9,0.2-1.3
		c-1.5-1.1-3.1-1.8-4.9-1c-0.8,0.3-1,0.7-0.7,1.5C75.4,36,76.3,36.5,77.8,36.7z M34.9,36.7c1.2-0.2,2.2-0.5,2.7-1.6
		c0.4-0.8,0.3-1.4-0.6-1.6c-0.6-0.2-1.3-0.2-1.9-0.1c-1,0.2-2,0.6-2.8,1c-0.8,0.4-0.7,1.1,0.1,1.4C33.2,36.2,34,36.4,34.9,36.7z"/>
	<path class="st2" d="M38.3,74.1c0.3,0.1,0.6,0.3,0.9,0.4c0,0,0.1-0.1,0.1-0.1c-0.1-0.1-0.3-0.2-0.4-0.4c-1.9-1.8-3.7-3.6-5.6-5.4
		c-0.6-0.6-0.9-1.3-0.9-2.2c0-2.5,0-5.1-0.1-7.6c0-0.4,0-0.9,0-1.3c0-0.8,0.2-1.1,1.1-1.2c1.1-0.1,2.2-0.5,3.1-1.1
		c3-1.9,5.4-4.4,7-7.6c0.3-0.5,0.5-1,0.6-1.6c0.3-1.1,0.2-2.1-0.7-2.8c4.5-5,21.3-5,25.6,0c-1.3,1.2-0.9,2.6-0.3,3.9
		c1.8,3.8,4.6,6.7,8.3,8.7c1,0.5,2.1,0.8,3.2,0.4c0.7-0.3,0.7,0.3,0.7,0.7c0,2-0.1,4.1-0.1,6.1c0,0.4-0.1,0.9-0.1,1.3
		c0.3,2.4-1,4-2.6,5.4c-1.6,1.5-3.2,3-4.8,4.6c0.3-0.1,0.6-0.3,0.9-0.4c-0.7,3.3-0.2,6.6-0.3,9.9c0,1.1-0.1,1.2-1.2,1.2
		c-11.1,0-22.2,0-33.3,0c-0.8,0-1-0.3-0.9-1c0.1-2.5,0.2-5.1,0.3-7.7C38.8,75.8,38.5,75,38.3,74.1z M56.2,84.7
		C56.2,84.7,56.2,84.7,56.2,84.7c5.4,0,10.9,0,16.3,0c1.1,0,1.1,0,1.1-1.1c0-1.9,0-3.8,0-5.7c0-1.4,0-1.4-1.4-1.4
		c-0.1,0-0.2,0-0.2,0c-6.8,0.1-13.5,0.2-20.3,0.3c-3.7,0-7.4-0.2-11-0.3c-1.4,0-1.4,0-1.5,1.3c0,2-0.1,3.9-0.1,5.9c0,1,0,1,1,1
		C45.4,84.7,50.8,84.7,56.2,84.7z M69.1,59c0-0.2,0-0.3,0-0.5c-0.2-4.1-1.6-7.7-4.7-10.4c-2.4-2.1-5.2-2.9-8.4-2.8
		c-4.2,0.1-7.6,1.9-9.8,5.3c-3,4.7-3.4,9.8-1,14.9c3.1,6.7,10.9,9.4,17.2,5.8C67,68.6,68.8,64.2,69.1,59z"/>
	<path class="st2" d="M31.8,37.3c1.5,0.2,2.9,0.3,4.4,0.5c0.3,0,0.6,0.5,0.7,0.8c0.9,2.7,1.7,5.3,2.5,8c0.3,1,0.7,2,0.9,3
		c0.1,0.6,0,1.3-0.3,1.8c-1.4,2.1-3.4,3.4-5.8,4.2c-0.8,0.3-1,0.1-1.1-0.7c-0.4-4.8-0.8-9.6-1.1-14.5c-0.1-0.9-0.1-1.7-0.2-2.6
		C31.8,37.7,31.8,37.4,31.8,37.3z"/>
	<path class="st2" d="M80.9,37.3c-0.1,1.3-0.2,2.7-0.3,4c-0.3,4.2-0.6,8.3-0.9,12.5c0,0.4-0.2,0.8-0.1,1.2c0,0.8-0.4,0.9-1,0.7
		c-2.4-0.8-4.5-2.2-5.9-4.4c-0.3-0.4-0.3-1.1-0.2-1.6c1.1-3.8,2.3-7.5,3.5-11.3c0.1-0.3,0.4-0.6,0.6-0.6
		C77.9,37.6,79.4,37.5,80.9,37.3z"/>
	<path class="st10" d="M71.2,49.8c-1.3-0.8-2-2.4-1.5-3.6c1.2-2.9,2.4-5.7,3.7-8.6c0.1-0.3,0.5-0.4,0.8-0.7c0.1,0.3,0.3,0.6,0.2,0.9
		c-1,3.7-1.9,7.4-2.9,11.1C71.4,49.2,71.3,49.5,71.2,49.8z"/>
	<path class="st10" d="M41.5,49.9c-0.2-0.4-0.3-0.8-0.4-1.1c-1-3.6-1.9-7.1-2.8-10.7c-0.1-0.2-0.1-0.4-0.1-0.6
		c0.1-0.5,0.3-0.6,0.7-0.3c0.2,0.2,0.4,0.4,0.5,0.6c1.2,2.8,2.4,5.5,3.6,8.3C43.5,47.2,43.1,48.6,41.5,49.9z"/>
	<path class="st2" d="M77.8,36.7C76.3,36.5,75.4,36,75,35c-0.3-0.8-0.1-1.2,0.7-1.5c1.9-0.7,3.5,0,4.9,1c0.6,0.4,0.5,1-0.2,1.3
		C79.5,36.2,78.6,36.4,77.8,36.7z"/>
	<path class="st2" d="M34.9,36.7c-0.9-0.3-1.7-0.5-2.6-0.8c-0.8-0.3-0.8-1-0.1-1.4c0.9-0.5,1.9-0.8,2.8-1c0.6-0.1,1.3-0.1,1.9,0.1
		c0.9,0.2,1,0.8,0.6,1.6C37.1,36.2,36.1,36.5,34.9,36.7z"/>
	<path class="st11" d="M56.2,84.7c-5.4,0-10.8,0-16.2,0c-1,0-1,0-1-1c0.1-2,0.1-3.9,0.1-5.9c0-1.3,0.1-1.3,1.5-1.3
		c3.7,0.1,7.4,0.3,11,0.3c6.8,0,13.5-0.2,20.3-0.3c0.1,0,0.2,0,0.2,0c1.4,0,1.4,0,1.4,1.4c0,1.9,0,3.8,0,5.7c0,1.1,0,1.1-1.1,1.1
		C67,84.7,61.6,84.7,56.2,84.7C56.2,84.7,56.2,84.7,56.2,84.7z M66.5,80.5c0.2,0.1,0.2,0.1,0.3,0.1c0.4,0.5,0.8,1,1.2,1.5
		c0.8,1,1.2,1,1.8-0.1c0.3-0.5,0.6-1,1-1.7c0.6,0.8,1,1.4,1.6,2c0.2,0.2,0.6,0.3,0.8,0.4c0-0.3,0.2-0.7,0-1c-0.6-1-1.2-2-1.9-2.9
		c-0.3-0.5-0.8-0.4-1.1,0c-0.3,0.4-0.6,1-0.9,1.4c-0.2,0.3-0.3,0.5-0.6,0.9c-0.5-0.7-0.9-1.3-1.3-1.9c-0.7-1-1.2-1-1.8,0.1
		c-0.3,0.6-0.6,1.2-1.1,2.1c-0.5-0.8-0.9-1.4-1.3-1.9c-0.3-0.4-0.7-0.7-1-1c-0.3,0.4-0.7,0.7-1,1.1c-0.3,0.5-0.6,1-0.9,1.7
		c-0.5-0.8-0.9-1.4-1.3-2c-0.6-0.9-1.2-0.9-1.7,0.1c-0.3,0.6-0.6,1.2-1,1.9c-0.2-0.4-0.3-0.6-0.5-0.8c-0.2-0.4-0.4-0.9-0.7-1.3
		c-0.4-0.6-0.9-0.7-1.3-0.1c-0.3,0.4-0.5,0.8-0.8,1.2c-0.2,0.3-0.4,0.6-0.8,1.1c-0.3-0.6-0.5-1.1-0.8-1.5c-0.3-0.4-0.7-0.8-1.1-1.2
		c-0.4,0.4-0.8,0.7-1.2,1.1c-0.4,0.5-0.7,1-1.2,1.7c-0.4-0.7-0.6-1.3-0.9-1.8c-0.3-0.4-0.6-0.7-1-1.1c-0.4,0.3-0.8,0.6-1.1,1
		c-0.4,0.5-0.7,1-1.2,1.7c-0.5-0.9-0.8-1.6-1.2-2.2c-0.4-0.7-0.9-0.7-1.4-0.1c-0.6,0.8-1.1,1.6-1.6,2.4c-0.2,0.3-0.1,0.8-0.1,1.2
		c0.3-0.2,0.7-0.3,1-0.6c0.5-0.5,0.9-1.2,1.4-1.8c0.4,0.8,0.8,1.5,1.2,2.1c0.4,0.6,0.8,0.7,1.3,0.1c0.3-0.4,0.6-0.8,0.9-1.1
		c0.2-0.3,0.5-0.6,0.8-1c0.4,0.7,0.7,1.2,1,1.7c0.6,1.1,1,1.1,1.8,0.1c0.5-0.6,0.9-1.2,1.4-1.9c0.4,0.7,0.7,1.4,1.1,2
		c0.5,0.9,0.9,0.9,1.5,0.1c0.5-0.6,1-1.3,1.5-2c0.4,0.7,0.7,1.3,1.1,1.9c0.2,0.3,0.5,0.6,0.8,0.6c0.3,0,0.6-0.4,0.8-0.6
		c0.4-0.6,0.7-1.2,1.1-1.9c0.6,0.8,1,1.4,1.6,2c0.6,0.8,1,0.7,1.5-0.2c0.3-0.6,0.7-1.2,1.1-1.9c0.6,0.8,1.1,1.5,1.6,2.1
		c0.6,0.7,1,0.7,1.5-0.1C65.8,81.8,66.2,81.2,66.5,80.5z"/>
	<path class="st12" d="M69.1,59c-0.2,5.2-2.1,9.6-6.7,12.3c-6.3,3.7-14.1,1-17.2-5.8c-2.4-5.2-2-10.2,1-14.9
		c2.2-3.5,5.6-5.2,9.8-5.3c3.2-0.1,6,0.7,8.4,2.8c3.1,2.8,4.5,6.3,4.7,10.4C69.1,58.7,69.1,58.9,69.1,59z M56.4,46.3
		c-5.1-0.3-8.9,2.6-10.8,6.7c-2.2,4.8-1.8,9.6,1.2,14c4.2,6.3,12.9,6.6,17.6,1.8c3-3.1,4.2-6.8,3.9-11C68,51.4,62.8,45.8,56.4,46.3z
		"/>
	<path class="st2" d="M66.5,80.5c-0.4,0.7-0.7,1.3-1.1,1.9c-0.5,0.8-0.9,0.8-1.5,0.1c-0.5-0.6-1-1.3-1.6-2.1
		c-0.4,0.7-0.7,1.3-1.1,1.9c-0.5,0.9-0.9,0.9-1.5,0.2c-0.5-0.6-1-1.3-1.6-2c-0.4,0.7-0.7,1.3-1.1,1.9C57,82.6,56.6,83,56.4,83
		c-0.3,0-0.6-0.3-0.8-0.6c-0.4-0.6-0.7-1.2-1.1-1.9c-0.6,0.7-1,1.4-1.5,2c-0.6,0.8-1,0.7-1.5-0.1c-0.3-0.6-0.7-1.2-1.1-2
		c-0.5,0.7-1,1.3-1.4,1.9c-0.8,1-1.2,1-1.8-0.1c-0.3-0.5-0.6-1.1-1-1.7c-0.3,0.4-0.5,0.7-0.8,1c-0.3,0.4-0.6,0.8-0.9,1.1
		c-0.5,0.5-0.9,0.5-1.3-0.1c-0.4-0.6-0.7-1.3-1.2-2.1c-0.5,0.7-0.9,1.3-1.4,1.8c-0.2,0.3-0.7,0.4-1,0.6c0-0.4-0.1-0.9,0.1-1.2
		c0.5-0.8,1-1.6,1.6-2.4c0.5-0.7,1-0.7,1.4,0.1c0.4,0.7,0.7,1.3,1.2,2.2c0.5-0.7,0.8-1.3,1.2-1.7c0.3-0.4,0.7-0.7,1.1-1
		c0.3,0.4,0.7,0.7,1,1.1c0.3,0.5,0.6,1,0.9,1.8c0.5-0.7,0.8-1.2,1.2-1.7c0.3-0.4,0.8-0.8,1.2-1.1c0.4,0.4,0.7,0.8,1.1,1.2
		c0.3,0.4,0.5,0.9,0.8,1.5c0.3-0.4,0.6-0.8,0.8-1.1c0.3-0.4,0.5-0.8,0.8-1.2c0.5-0.6,0.9-0.6,1.3,0.1c0.3,0.4,0.5,0.9,0.7,1.3
		c0.1,0.2,0.3,0.5,0.5,0.8c0.4-0.7,0.7-1.3,1-1.9c0.6-1,1.1-1,1.7-0.1c0.4,0.6,0.8,1.2,1.3,2c0.4-0.7,0.6-1.3,0.9-1.7
		c0.3-0.4,0.7-0.7,1-1.1c0.3,0.3,0.7,0.6,1,1c0.4,0.5,0.8,1.1,1.3,1.9c0.4-0.9,0.7-1.5,1.1-2.1c0.6-1.1,1.1-1.1,1.8-0.1
		c0.4,0.6,0.8,1.2,1.3,1.9c0.3-0.4,0.4-0.7,0.6-0.9c0.3-0.5,0.5-1,0.9-1.4c0.3-0.4,0.7-0.5,1.1,0c0.7,1,1.3,1.9,1.9,2.9
		c0.1,0.2,0,0.6,0,1c-0.3-0.1-0.6-0.2-0.8-0.4c-0.5-0.6-1-1.2-1.6-2c-0.4,0.6-0.7,1.2-1,1.7c-0.6,1.1-1,1.1-1.8,0.1
		c-0.4-0.5-0.8-1-1.2-1.5C66.8,80.6,66.7,80.6,66.5,80.5z"/>
	<path class="st11" d="M56.4,46.3c6.4-0.4,11.6,5.2,11.9,11.4c0.3,4.2-0.9,8-3.9,11C59.7,73.6,51,73.2,46.8,67
		c-3-4.4-3.4-9.2-1.2-14C47.5,48.8,51.3,46,56.4,46.3z M57.7,54.2c0,0.1,0,0.1,0,0.2c1.3-0.2,2.6-0.2,3.8-0.6
		c0.5-0.1,1.2-0.7,1.3-1.2c0.5-1.5,0-2.3-1.4-3.2c-1.9-1.2-3.9-1.5-6-1.3c-3,0.2-5.3,1.5-6.8,4.1c-0.6,0.9-0.5,2,0,2.6
		c0.5,0.6,1.3,0.6,2.4,0.1c0.8-0.3,1.6-0.6,2.5-0.6C54.9,54.1,56.3,54.2,57.7,54.2z M48.2,57.1c0-1-0.6-1.7-1.3-1.7
		c-0.8,0-1.5,0.9-1.5,1.9c0,1,0.6,1.7,1.3,1.7C47.5,58.9,48.2,58.1,48.2,57.1z"/>
	<path class="st2" d="M57.7,54.2c-1.4,0-2.8-0.1-4.2,0c-0.8,0.1-1.7,0.3-2.5,0.6c-1.1,0.4-1.9,0.4-2.4-0.1c-0.5-0.6-0.6-1.6,0-2.6
		c1.5-2.6,3.8-3.9,6.8-4.1c2.1-0.1,4.2,0.1,6,1.3c1.4,0.9,1.8,1.7,1.4,3.2c-0.2,0.5-0.8,1.1-1.3,1.2c-1.2,0.3-2.5,0.4-3.8,0.6
		C57.7,54.3,57.7,54.2,57.7,54.2z"/>
	<path class="st2" d="M48.2,57.1c0,1-0.7,1.8-1.5,1.8c-0.8,0-1.3-0.7-1.3-1.7c0-0.9,0.7-1.9,1.5-1.9C47.6,55.3,48.2,56.1,48.2,57.1z
		"/>
	<g>
		<g>
			<g>
				<path class="st13" d="M23.9,71.8c2,3.1-1.9,9.4-1.9,9.4c-7.5-1-8.5-3.7-8.5-3.7c-1.6-3.4,2.2-5.7,4.5-4
					C17.8,70.4,22.1,68.8,23.9,71.8z"/>
				<path class="st14" d="M23.9,71.8c2,3.1-1.9,9.4-1.9,9.4c-7.5-1-8.5-3.7-8.5-3.7c-1.6-3.4,2.2-5.7,4.5-4
					C17.8,70.4,22.1,68.8,23.9,71.8z"/>
			</g>
		</g>
	</g>
	<g>
		<g>
			<g>
				<path class="st13" d="M97.6,53.4c1.5,3.2-3.2,8.7-3.2,8.7c-7-2.1-7.5-4.8-7.5-4.8c-1-3.5,3-5.1,4.9-3.2
					C92,51.1,96.4,50.3,97.6,53.4z"/>
				<path class="st15" d="M97.6,53.4c1.5,3.2-3.2,8.7-3.2,8.7c-7-2.1-7.5-4.8-7.5-4.8c-1-3.5,3-5.1,4.9-3.2
					C92,51.1,96.4,50.3,97.6,53.4z"/>
			</g>
		</g>
	</g>
	<g>
		<g>
			<path class="st16" d="M27.5,44.2c0.7,2.4-3.1,5.9-3.1,5.9c-4.7-2.2-4.9-4.1-4.9-4.1c-0.4-2.6,2.6-3.3,3.8-1.7
				C23.7,42.1,27,41.9,27.5,44.2z"/>
		</g>
	</g>
	<g>
		<g>
			<g>
				<path class="st13" d="M95.2,81c-0.4,3-6.2,4.7-6.2,4.7c-4-4.6-3.2-6.8-3.2-6.8c0.8-2.9,4.4-2.3,4.9,0
					C92.2,76.9,95.7,78.3,95.2,81z"/>
				<path class="st14" d="M95.2,81c-0.4,3-6.2,4.7-6.2,4.7c-4-4.6-3.2-6.8-3.2-6.8c0.8-2.9,4.4-2.3,4.9,0
					C92.2,76.9,95.7,78.3,95.2,81z"/>
			</g>
		</g>
	</g>
</g>
</svg>
