<svg id="ebRMjyzZ6i11" xmlns="http://www.w3.org/2000/svg" xmlns:xlink="http://www.w3.org/1999/xlink" viewBox="0 0 110.900000 128" shape-rendering="geometricPrecision" text-rendering="geometricPrecision"><style><![CDATA[#ebRMjyzZ6i122_ts {animation: ebRMjyzZ6i122_ts__ts 3000ms linear 1 normal forwards}@keyframes ebRMjyzZ6i122_ts__ts { 0% {transform: translate(20.202270px,83.110561px) scale(0.908924,0.908924)} 93.333333% {transform: translate(20.202270px,83.110561px) scale(1.326905,1.326905)} 100% {transform: translate(20.202270px,83.110561px) scale(1.326905,1.326905)}} #ebRMjyzZ6i123_ts {animation: ebRMjyzZ6i123_ts__ts 3000ms linear 1 normal forwards}@keyframes ebRMjyzZ6i123_ts__ts { 0% {transform: translate(20.202270px,83.110561px) scale(0.908924,0.908924)} 93.333333% {transform: translate(20.202270px,83.110561px) scale(1.326905,1.326905)} 100% {transform: translate(20.202270px,83.110561px) scale(1.326905,1.326905)}} #ebRMjyzZ6i126_ts {animation: ebRMjyzZ6i126_ts__ts 3000ms linear 1 normal forwards}@keyframes ebRMjyzZ6i126_ts__ts { 0% {transform: translate(18.409796px,66.679264px) scale(1,1)} 100% {transform: translate(18.409796px,66.679264px) scale(1.464942,1.464942)}} #ebRMjyzZ6i130_ts {animation: ebRMjyzZ6i130_ts__ts 3000ms linear 1 normal forwards}@keyframes ebRMjyzZ6i130_ts__ts { 0% {transform: translate(92.948868px,72.386940px) scale(1,1)} 86.666667% {transform: translate(92.948868px,72.386940px) scale(1.194225,1.194225)} 100% {transform: translate(92.948868px,72.386940px) scale(1.194225,1.194225)}} #ebRMjyzZ6i131_ts {animation: ebRMjyzZ6i131_ts__ts 3000ms linear 1 normal forwards}@keyframes ebRMjyzZ6i131_ts__ts { 0% {transform: translate(92.948868px,72.386940px) scale(1,1)} 86.666667% {transform: translate(92.948868px,72.386940px) scale(1.194225,1.194225)} 100% {transform: translate(92.948868px,72.386940px) scale(1.194225,1.194225)}} #ebRMjyzZ6i135_ts {animation: ebRMjyzZ6i135_ts__ts 3000ms linear 1 normal forwards}@keyframes ebRMjyzZ6i135_ts__ts { 0% {transform: translate(89.253696px,49.448259px) scale(1,1)} 93.333333% {transform: translate(89.253696px,49.448259px) scale(0.558551,0.558551)} 100% {transform: translate(89.253696px,49.448259px) scale(0.558551,0.558551)}} #ebRMjyzZ6i136_ts {animation: ebRMjyzZ6i136_ts__ts 3000ms linear 1 normal forwards}@keyframes ebRMjyzZ6i136_ts__ts { 0% {transform: translate(89.253696px,49.448259px) scale(1,1)} 93.333333% {transform: translate(89.253696px,49.448259px) scale(0.558551,0.558551)} 100% {transform: translate(89.253696px,49.448259px) scale(0.558551,0.558551)}}]]></style><g id="ebRMjyzZ6i12" display="none"><g id="ebRMjyzZ6i13"><polygon id="ebRMjyzZ6i14" points="110.800000,32 110.800000,96 55.400000,128 11.100000,102.400000 10.900000,102.300000 0,96 0,32 55.400000,0" fill="rgb(0,0,0)" stroke="none" stroke-width="1"/></g><g id="ebRMjyzZ6i15"><polygon id="ebRMjyzZ6i16" points="101.400000,37.400000 101.400000,90.600000 55.400000,117.100000 9.400000,90.600000 9.400000,37.400000 55.400000,10.900000" fill="rgb(255,255,255)" stroke="none" stroke-width="1"/></g><g id="ebRMjyzZ6i17" opacity="0.13"><path id="ebRMjyzZ6i18" d="M55.400000,10.900000L9.400000,37.500000L9.400000,90.600000L55.400000,117.200000L101.400000,90.600000L101.400000,37.400000L55.400000,10.900000ZM99.700000,89.500000L55.500000,115L11.400000,89.500000L11.400000,38.500000L55.500000,13L99.700000,38.500000L99.700000,89.500000Z" fill="rgb(0,0,0)" stroke="none" stroke-width="1"/></g></g><g id="ebRMjyzZ6i19"><g id="ebRMjyzZ6i110"><polygon id="ebRMjyzZ6i111" points="110,49 110,79.100000 110.900000,79.100000 110.900000,96 55.400000,128 11.100000,102.400000 10.900000,102.300000 0,96 0,80.200000 0.700000,80.200000 0.700000,50.100000 0,50.100000 0,32 55.400000,0 110.900000,32 110.900000,49" fill="rgb(13,19,27)" stroke="none" stroke-width="1"/></g><g id="ebRMjyzZ6i112"><g id="ebRMjyzZ6i113"><g id="ebRMjyzZ6i114"><polygon id="ebRMjyzZ6i115" points="101.500000,37.400000 101.500000,90.600000 55.400000,117.100000 9.400000,90.600000 9.400000,37.400000 55.400000,10.900000" fill="rgb(255,255,255)" stroke="none" stroke-width="1"/></g></g></g><g id="ebRMjyzZ6i116"><path id="ebRMjyzZ6i117" d="M53.800000,11L9.800000,36.400000C9,36.900000,8.500000,37.700000,8.500000,38.700000L8.500000,89.600000C8.500000,90.500000,9,91.400000,9.800000,91.900000L53.900000,117.400000C54.700000,117.900000,55.700000,117.900000,56.500000,117.400000L100.600000,91.900000C101.400000,91.400000,101.900000,90.600000,101.900000,89.600000L101.900000,38.700000C101.900000,37.800000,101.400000,36.900000,100.600000,36.400000L56.500000,11C55.700000,10.500000,54.700000,10.500000,53.800000,11ZM98.800000,90.800000L56.600000,115.200000C55.800000,115.700000,54.800000,115.700000,54,115.200000L11.700000,90.800000C10.900000,90.300000,10.400000,89.500000,10.400000,88.500000L10.400000,39.800000C10.400000,38.900000,10.900000,38,11.700000,37.500000L54,13.100000C54.800000,12.600000,55.800000,12.600000,56.600000,13.100000L98.800000,37.500000C99.600000,38,100.100000,38.800000,100.100000,39.800000L100.100000,88.600000C100.200000,89.500000,99.700000,90.400000,98.800000,90.800000Z" fill="rgb(67,173,134)" stroke="rgb(67,173,134)" stroke-width="1.015700" stroke-miterlimit="10"/></g><circle id="ebRMjyzZ6i118" r="37.900000" transform="matrix(0.99974864675433 -0.02241970813569 0.02241970813569 0.99974864675433 56.20000000019177 64.50000001710488)" fill="rgb(169,182,202)" stroke="none" stroke-width="1"/><g id="ebRMjyzZ6i119"><g id="ebRMjyzZ6i120"><g id="ebRMjyzZ6i121"><g id="ebRMjyzZ6i122_ts" transform="translate(20.202270,83.110561) scale(0.908924,0.908924)"><path id="ebRMjyzZ6i122" d="M26.100000,81C26.400000,84.700000,19.900000,88.300000,19.900000,88.300000C13.900000,83.800000,14.300000,81,14.300000,81C14.500000,77.200000,19,77.100000,20.200000,79.700000C21.400000,76.900000,26,77.600000,26.100000,81Z" transform="translate(-20.202270,-83.110561)" fill="rgb(67,173,134)" stroke="none" stroke-width="1"/></g><g id="ebRMjyzZ6i123_ts" transform="translate(20.202270,83.110561) scale(0.908924,0.908924)"><path id="ebRMjyzZ6i123" d="M26.100000,81C26.400000,84.700000,19.900000,88.300000,19.900000,88.300000C13.900000,83.800000,14.300000,81,14.300000,81C14.500000,77.200000,19,77.100000,20.200000,79.700000C21.400000,76.900000,26,77.600000,26.100000,81Z" transform="translate(-20.202270,-83.110561)" fill="none" stroke="rgb(255,255,255)" stroke-width="0.500000" stroke-miterlimit="10"/></g></g></g></g><g id="ebRMjyzZ6i124"><g id="ebRMjyzZ6i125"><g id="ebRMjyzZ6i126_ts" transform="translate(18.409796,66.679264) scale(1,1)"><path id="ebRMjyzZ6i126" d="M22.400000,65.200000C22.600000,67.700000,18.100000,70.300000,18.100000,70.300000C13.900000,67.200000,14.200000,65.200000,14.200000,65.200000C14.400000,62.600000,17.500000,62.500000,18.300000,64.300000C19.200000,62.300000,22.300000,62.800000,22.400000,65.200000Z" transform="translate(-18.300893,-66.679264)" fill="rgb(67,173,134)" stroke="rgb(255,255,255)" stroke-width="0.500000" stroke-miterlimit="10"/></g></g></g><g id="ebRMjyzZ6i127"><g id="ebRMjyzZ6i128"><g id="ebRMjyzZ6i129"><g id="ebRMjyzZ6i130_ts" transform="translate(92.948868,72.386940) scale(1,1)"><path id="ebRMjyzZ6i130" d="M97.700000,70.700000C97.900000,73.700000,92.700000,76.600000,92.700000,76.600000C87.800000,72.900000,88.200000,70.700000,88.200000,70.700000C88.400000,67.600000,92,67.500000,93,69.600000C93.900000,67.300000,97.700000,67.900000,97.700000,70.700000Z" transform="translate(-92.948868,-72.386940)" fill="rgb(67,173,134)" stroke="none" stroke-width="1"/></g><g id="ebRMjyzZ6i131_ts" transform="translate(92.948868,72.386940) scale(1,1)"><path id="ebRMjyzZ6i131" d="M97.700000,70.700000C97.900000,73.700000,92.700000,76.600000,92.700000,76.600000C87.800000,72.900000,88.200000,70.700000,88.200000,70.700000C88.400000,67.600000,92,67.500000,93,69.600000C93.900000,67.300000,97.700000,67.900000,97.700000,70.700000Z" transform="translate(-92.948868,-72.386940)" fill="none" stroke="rgb(255,255,255)" stroke-width="0.500000" stroke-miterlimit="10"/></g></g></g></g><g id="ebRMjyzZ6i132"><g id="ebRMjyzZ6i133"><g id="ebRMjyzZ6i134"><g id="ebRMjyzZ6i135_ts" transform="translate(89.253696,49.448259) scale(1,1)"><path id="ebRMjyzZ6i135" d="M96.900000,46.700000C97.300000,51.500000,88.900000,56.200000,88.900000,56.200000C81.100000,50.300000,81.600000,46.700000,81.600000,46.700000C81.900000,41.800000,87.700000,41.600000,89.300000,45C90.800000,41.300000,96.800000,42.300000,96.900000,46.700000Z" transform="translate(-89.253696,-49.448259)" fill="rgb(67,173,134)" stroke="none" stroke-width="1"/></g><g id="ebRMjyzZ6i136_ts" transform="translate(89.253696,49.448259) scale(1,1)"><path id="ebRMjyzZ6i136" d="M96.900000,46.700000C97.300000,51.500000,88.900000,56.200000,88.900000,56.200000C81.100000,50.300000,81.600000,46.700000,81.600000,46.700000C81.900000,41.800000,87.700000,41.600000,89.300000,45C90.800000,41.300000,96.800000,42.300000,96.900000,46.700000Z" transform="translate(-89.253696,-49.448259)" fill="none" stroke="rgb(255,255,255)" stroke-width="0.500000" stroke-miterlimit="10"/></g></g></g></g><path id="ebRMjyzZ6i137" d="" fill="rgb(100,80,255)" stroke="none" stroke-width="1"/><polygon id="ebRMjyzZ6i138" points="33.300000,68.300000 34.700000,67.400000 79.900000,67.400000 79.400000,68.300000 80.500000,69.100000 79.400000,71.200000 76.200000,81.500000 71.100000,84.200000 69.500000,85.400000 67.600000,90 69.400000,90 68.900000,92.100000 65.400000,98.300000 46.400000,98.300000 43.900000,91 44,90 45.600000,90 45.600000,88.500000 43,84.500000 39,83 37.300000,81.100000" fill="rgb(255,255,255)" stroke="none" stroke-width="1"/><path id="ebRMjyzZ6i139" d="M66.900000,59.300000L68.900000,58.700000L70.800000,57.300000L72.100000,56.300000L72.800000,54.300000L73.700000,43.800000L73.400000,41.300000L74.300000,31L73.500000,29.500000C73.500000,29.500000,72.800000,27.600000,69.500000,28.600000L68.300000,31.200000L66.300000,35.600000L65.200000,34.500000C65.200000,34.500000,59.400000,32.400000,56.600000,32.900000C53.900000,33.300000,51.200000,32.500000,47,35.600000L45,31L43.800000,28.400000L41.500000,28.700000L39.600000,29.500000C39.600000,29.500000,39.400000,30.400000,39.400000,30.700000C39.400000,31.100000,39.900000,42.700000,39.900000,42.700000L40.100000,45.500000L40.500000,54.600000L42.600000,57.100000L44.800000,58.700000L58.600000,59.300000L66.900000,59.300000Z" fill="rgb(255,255,255)" stroke="none" stroke-width="1"/><path id="ebRMjyzZ6i140" d="M4.200000,52.200000L4.200000,78.200000C4.200000,79.300000,3.300000,80.200000,2.200000,80.200000L0.700000,80.200000L0.700000,50.100000L2.200000,50.100000C3.300000,50.100000,4.200000,51.100000,4.200000,52.200000Z" opacity="0.61" fill="rgb(255,255,255)" stroke="none" stroke-width="1"/><path id="ebRMjyzZ6i141" d="M4.100000,52.200000L4.100000,78.200000C4.100000,79.300000,3.200000,80.200000,2.100000,80.200000L0.500000,80.200000L0.500000,50.100000L2,50.100000C3.200000,50.100000,4.100000,51.100000,4.100000,52.200000Z" fill="rgb(67,173,134)" stroke="none" stroke-width="1"/><rect id="ebRMjyzZ6i142" width="3.700000" height="0.200000" rx="0" ry="0" transform="matrix(1 0 0 1 0.40000000000000 74.50000000000000)" opacity="0.71" fill="rgb(255,255,255)" stroke="none" stroke-width="1"/><rect id="ebRMjyzZ6i143" width="3.800000" height="0.100000" rx="0" ry="0" transform="matrix(1 0 0 1 0.40000000000000 74.59999999999999)" fill="rgb(0,0,0)" stroke="none" stroke-width="1"/><rect id="ebRMjyzZ6i144" width="3.700000" height="0.200000" rx="0" ry="0" transform="matrix(1 0 0 1 0.40000000000000 55.90000000000000)" opacity="0.71" fill="rgb(255,255,255)" stroke="none" stroke-width="1"/><rect id="ebRMjyzZ6i145" width="3.700000" height="0.200000" rx="0" ry="0" transform="matrix(1 0 0 1 0.40000000000000 65.20000000000000)" opacity="0.71" fill="rgb(255,255,255)" stroke="none" stroke-width="1"/><rect id="ebRMjyzZ6i146" width="0.500000" height="38.800000" rx="0" ry="0" transform="matrix(1 0 0 1 0.40000000000000 49.20000000000000)" fill="rgb(0,0,0)" stroke="none" stroke-width="1"/><rect id="ebRMjyzZ6i147" width="3.800000" height="0.200000" rx="0" ry="0" transform="matrix(1 0 0 1 0.40000000000000 56.10000000000000)" fill="rgb(0,0,0)" stroke="none" stroke-width="1"/><rect id="ebRMjyzZ6i148" width="3.800000" height="0.200000" rx="0" ry="0" transform="matrix(1 0 0 1 0.40000000000000 65.30000000000000)" fill="rgb(0,0,0)" stroke="none" stroke-width="1"/><path id="ebRMjyzZ6i149" d="M106.800000,51.100000L106.800000,77.100000C106.800000,78.200000,107.700000,79.100000,108.800000,79.100000L110.300000,79.100000L110.300000,49L108.800000,49C107.700000,49,106.800000,49.900000,106.800000,51.100000Z" opacity="0.61" fill="rgb(255,255,255)" stroke="none" stroke-width="1"/><path id="ebRMjyzZ6i150" d="M106.900000,51.100000L106.900000,77.100000C106.900000,78.200000,107.800000,79.100000,108.900000,79.100000L110.400000,79.100000L110.400000,49L108.900000,49C107.800000,49,106.900000,50,106.900000,51.100000Z" fill="rgb(67,173,134)" stroke="none" stroke-width="1"/><rect id="ebRMjyzZ6i151" width="3.600000" height="0.200000" rx="0" ry="0" transform="matrix(1 0 0 1 106.90000000000001 73.30000000000000)" opacity="0.71" fill="rgb(255,255,255)" stroke="none" stroke-width="1"/><rect id="ebRMjyzZ6i152" width="3.500000" height="0.100000" rx="0" ry="0" transform="matrix(1 0 0 1 106.90000000000001 73.50000000000000)" fill="rgb(0,0,0)" stroke="none" stroke-width="1"/><rect id="ebRMjyzZ6i153" width="3.600000" height="0.200000" rx="0" ry="0" transform="matrix(1 0 0 1 106.90000000000001 54.80000000000000)" opacity="0.71" fill="rgb(255,255,255)" stroke="none" stroke-width="1"/><rect id="ebRMjyzZ6i154" width="3.600000" height="0.200000" rx="0" ry="0" transform="matrix(1 0 0 1 106.90000000000001 64.09999999999999)" opacity="0.71" fill="rgb(255,255,255)" stroke="none" stroke-width="1"/><polyline id="ebRMjyzZ6i155" points="110.500000,86.900000 110.500000,48.100000 110,48.100000 110,86.900000" fill="rgb(0,0,0)" stroke="none" stroke-width="1"/><rect id="ebRMjyzZ6i156" width="3.500000" height="0.200000" rx="0" ry="0" transform="matrix(1 0 0 1 106.90000000000001 55)" fill="rgb(0,0,0)" stroke="none" stroke-width="1"/><rect id="ebRMjyzZ6i157" width="3.500000" height="0.200000" rx="0" ry="0" transform="matrix(1 0 0 1 106.90000000000001 64.20000000000000)" fill="rgb(0,0,0)" stroke="none" stroke-width="1"/><path id="ebRMjyzZ6i158" d="M57,37.500000C57,37.500000,47.900000,37.100000,48.300000,47.200000C48.300000,47.200000,48.900000,56.200000,57.200000,55.600000C65.500000,55,66.600000,45,64,42C64,42,63.600000,38.200000,57,37.500000Z" clip-rule="evenodd" fill="rgb(92,207,165)" fill-rule="evenodd" stroke="none" stroke-width="1"/><path id="ebRMjyzZ6i159" d="M45.600000,96.600000L43.900000,92C43.900000,92,42.300000,92.100000,42.400000,92.800000C42.500000,93.600000,44,97.600000,44,97.600000L45.600000,96.600000Z" fill="rgb(67,173,134)" stroke="none" stroke-width="1"/><polygon id="ebRMjyzZ6i160" points="66.800000,96.900000 68,97.700000 71.100000,92.900000 70.200000,91.500000 68.900000,92.100000" fill="rgb(67,173,134)" stroke="none" stroke-width="1"/><polygon id="ebRMjyzZ6i161" points="73.900000,84.200000 80.500000,84.200000 80.500000,71.200000 79.400000,72.100000 77.200000,79.900000 75.400000,82.700000" fill="rgb(67,173,134)" stroke="none" stroke-width="1"/><polygon id="ebRMjyzZ6i162" points="33.800000,70.700000 36.400000,76.700000 37.700000,81.600000 40.600000,83.800000 39.500000,85.100000 33.800000,85.100000 32.800000,84" fill="rgb(67,173,134)" stroke="none" stroke-width="1"/><path id="ebRMjyzZ6i163" d="M73.900000,44.100000C73.900000,44.100000,74.900000,44.900000,74.300000,49.300000C73.700000,53.700000,75.600000,54.300000,72.800000,54.200000C72.800000,54.200000,72.800000,49.800000,72.800000,49.300000C72.800000,48.700000,73.600000,42,73.900000,44.100000Z" clip-rule="evenodd" fill="rgb(67,173,134)" fill-rule="evenodd" stroke="none" stroke-width="1"/><path id="ebRMjyzZ6i164" d="M39.700000,44.100000C39.700000,44.100000,40.500000,52.500000,40,54.200000L39,52.400000C39,52.400000,38.400000,43.300000,39.700000,44.100000Z" clip-rule="evenodd" fill="rgb(67,173,134)" fill-rule="evenodd" stroke="none" stroke-width="1"/><path id="ebRMjyzZ6i165" d="M45,89.500000C44.500000,88.300000,44.100000,87.300000,43.500000,86.300000C43.400000,86,42.800000,85.900000,42.500000,85.900000C39.600000,85.900000,36.700000,85.900000,33.700000,85.800000C32.500000,85.800000,32.200000,85.400000,32.200000,84.300000C32.300000,79.200000,32.300000,74.100000,32.400000,69C32.400000,66.900000,32.400000,66.900000,34.500000,66.900000C49.700000,66.900000,64.900000,66.900000,80.100000,66.900000C81.300000,66.900000,81.500000,67.100000,81.500000,68.300000C81.500000,73.700000,81.400000,79.100000,81.300000,84.400000C81.300000,85.600000,81.100000,85.900000,79.900000,85.900000C77,86,74.100000,86,71.100000,86C70.400000,86,70,86.200000,69.700000,86.900000C69.400000,87.700000,69,88.400000,68.500000,89.300000C69.100000,89.300000,69.500000,89.300000,69.900000,89.300000C70.700000,89.300000,71.100000,89.700000,70.800000,90.500000C70.600000,91,70.800000,91.200000,71.200000,91.400000C72.100000,92,72.200000,92.300000,71.600000,93.200000C70.700000,94.600000,69.800000,96.100000,69,97.500000C68.600000,98.200000,68.100000,98.400000,67.300000,98.100000C67.100000,98,66.600000,98.200000,66.500000,98.400000C66,99,65.500000,99.200000,64.700000,99.200000C58.900000,99.100000,53.100000,99,47.300000,99C46.600000,99,45.800000,99.300000,45.300000,98.300000C45.300000,98.200000,44.900000,98.300000,44.700000,98.300000C44,98.300000,43.500000,98.100000,43.200000,97.400000C42.700000,96.100000,42.200000,94.700000,41.600000,93.400000C41.300000,92.700000,41.500000,92.200000,42.200000,91.900000C42.900000,91.600000,43.400000,91.300000,43.200000,90.400000C43.200000,90.200000,43.500000,89.900000,43.800000,89.800000C44,89.600000,44.400000,89.600000,45,89.500000ZM65.700000,93.400000C65.600000,93.400000,65.600000,93.300000,65.500000,93.300000C66.700000,91,68,88.600000,69,86.300000C69.900000,84.300000,71.300000,82.900000,73.500000,82.500000C74.900000,82.300000,75.600000,81.400000,76,80.200000C77.100000,76.300000,78.200000,72.400000,79.300000,68.400000C64.300000,68.400000,49.500000,68.400000,34.600000,68.400000C34.900000,69.500000,35.100000,70.400000,35.400000,71.400000C36.200000,74.400000,37.100000,77.400000,37.900000,80.300000C38.200000,81.400000,38.900000,82.100000,40.100000,82.300000C41.800000,82.600000,43.200000,83.400000,44.100000,84.900000C44.500000,85.600000,45,86.300000,45.300000,87.100000C46.600000,90.200000,47.300000,93.500000,48,96.900000C48,97,47.900000,97.200000,47.800000,97.500000C47.600000,97,47.400000,96.700000,47.300000,96.400000C46.700000,94.700000,46,93,45.400000,91.300000C45.200000,90.800000,45,90.500000,44.400000,90.800000C44.500000,91.100000,44.600000,91.300000,44.600000,91.600000C45.100000,93,45.500000,94.400000,46,95.800000C46.600000,97.600000,46.600000,97.600000,48.500000,97.600000C53.800000,97.600000,59,97.700000,64.300000,97.700000C64.800000,97.700000,65.200000,97.700000,65.500000,97.100000C66.400000,95.300000,67.300000,93.600000,68.300000,91.800000C68.500000,91.500000,68.600000,91.200000,68.700000,90.900000C67.900000,90.600000,67.500000,90.700000,67.100000,91.400000C66.700000,92,66.200000,92.700000,65.700000,93.400000ZM34.100000,72C34,72,34,72,33.900000,72C33.900000,72.600000,33.900000,73.200000,33.900000,73.800000C33.900000,76.900000,33.800000,79.900000,33.800000,83C33.800000,83.400000,33.700000,83.900000,34.300000,83.900000C35.800000,83.900000,37.300000,83.900000,38.800000,83.900000C38.800000,83.800000,38.900000,83.800000,38.900000,83.700000C37.500000,83.100000,36.900000,82,36.400000,80.700000C36,79.700000,35.700000,78.700000,35.400000,77.700000C35,75.900000,34.600000,74,34.100000,72ZM75.100000,83.800000C75.100000,83.900000,75.200000,83.900000,75.200000,84C76.400000,84,77.500000,84,78.700000,84C79.800000,84,79.900000,83.900000,79.900000,82.800000C79.900000,79.600000,79.900000,76.400000,79.900000,73.200000C79.900000,73,79.900000,72.700000,79.900000,72.400000C79.200000,75,78.500000,77.500000,77.800000,79.900000C77.300000,81.500000,76.700000,83,75.100000,83.800000ZM44.400000,96.800000C44.700000,96.500000,44.800000,96.400000,44.800000,96.300000C44.500000,95.100000,44.100000,94,43.800000,92.900000C43.800000,92.800000,43.500000,92.800000,43.400000,92.800000C43.100000,93,43,93.200000,43,93.300000C43.400000,94.400000,43.900000,95.600000,44.400000,96.800000ZM67.600000,96.400000C67.700000,96.500000,67.800000,96.500000,67.900000,96.600000C68.700000,95.300000,69.400000,94,70.200000,92.700000C70.100000,92.600000,69.900000,92.500000,69.800000,92.500000C69.100000,93.800000,68.300000,95.100000,67.600000,96.400000Z" fill="rgb(16,35,60)" stroke="none" stroke-width="1"/><path id="ebRMjyzZ6i166" d="M47.100000,35.200000C49,33.300000,51.400000,33.100000,53.800000,32.800000C56.800000,32.400000,59.700000,32.600000,62.600000,33.200000C64,33.500000,65.300000,33.800000,66.400000,35.100000C66.800000,34.100000,67.100000,33.300000,67.400000,32.500000C67.800000,31.500000,68.200000,30.400000,68.500000,29.400000C68.800000,28.600000,69.400000,28.100000,70.200000,28.100000C71.200000,28.100000,72.300000,28.200000,73.200000,28.500000C74.200000,28.800000,74.700000,29.600000,74.600000,30.800000C74.400000,34.500000,74.200000,38.100000,73.900000,41.800000C73.900000,42.500000,73.800000,43.100000,74.500000,43.500000C74.800000,43.700000,74.900000,44.100000,75,44.500000C75.200000,45.800000,75.400000,47.100000,75.300000,48.400000C75.300000,49.900000,75.100000,51.400000,74.900000,52.900000C74.800000,53.800000,74.400000,54.600000,73.500000,54.900000C73.300000,55,73.100000,55.300000,73,55.500000C72.800000,56.400000,72.200000,57,71.300000,57.300000C69.500000,58.100000,69.400000,58.200000,69.500000,60.200000C69.500000,61.100000,69.600000,62,69.600000,62.900000C69.600000,64,69.300000,64.200000,68.300000,64.300000C65.900000,64.400000,63.600000,64.500000,61.200000,64.500000C56,64.500000,50.900000,64.400000,45.700000,64.400000C44,64.400000,43.800000,64.100000,43.900000,62.400000C43.900000,61.400000,44,60.400000,44.100000,59.500000C44.200000,58.700000,43.800000,58.200000,43.100000,57.800000C42.500000,57.500000,41.700000,57.200000,41.300000,56.700000C40.600000,55.800000,40.100000,54.800000,39.100000,54.100000C38.800000,53.900000,38.600000,53.200000,38.600000,52.700000C38.500000,50.400000,38.400000,48.100000,38.400000,45.800000C38.400000,44.800000,38.600000,43.800000,39.500000,43.200000C39.700000,43,39.700000,42.500000,39.700000,42.200000C39.500000,38.500000,39.300000,34.800000,39.100000,31.100000C39,29.600000,39.400000,29,40.700000,28.500000C42.100000,27.900000,43.400000,27.700000,44.700000,28.700000C45,28.900000,45.100000,29.300000,45.300000,29.700000C45.900000,31.300000,46.400000,33,47,34.600000C46.800000,34.700000,46.900000,34.900000,47.100000,35.200000ZM47.600000,35.500000C48.600000,36.400000,48.600000,37.300000,48.200000,38.100000C47.600000,39.200000,47,40.300000,46.300000,41.300000C45,42.900000,43.500000,44.200000,41.500000,44.800000C40.900000,45,40.600000,45.200000,40.700000,45.800000C40.800000,48.300000,40.900000,50.700000,41,53.200000C41.100000,54.900000,41.800000,56.100000,43.400000,56.900000C44,57.200000,44.400000,57.800000,44.900000,58.300000C45.100000,58.500000,45.400000,58.700000,45.700000,58.700000C53.100000,58.700000,60.500000,58.700000,68,58.700000C68.200000,58.700000,68.700000,58.600000,68.700000,58.400000C69,57.500000,69.800000,57.100000,70.600000,56.700000C72,56.100000,72.500000,55,72.700000,53.700000C72.800000,53.300000,72.800000,52.800000,72.800000,52.400000C72.900000,50.200000,72.900000,48,72.900000,45.700000C72.900000,45.400000,72.600000,45,72.300000,44.900000C68.900000,43.800000,66.700000,41.300000,65.300000,38.100000C64.900000,37.300000,64.800000,36.500000,65.400000,35.600000C65.500000,35.500000,65.300000,35,65.100000,34.900000C64.500000,34.600000,63.800000,34.300000,63.100000,34.100000C58.900000,33,54.600000,32.800000,50.400000,34.200000C49.500000,34.400000,48.700000,35,47.600000,35.500000ZM73.800000,31.400000C72.700000,31.500000,71.800000,31.600000,70.900000,31.800000C70.700000,31.800000,70.400000,32.200000,70.300000,32.400000C69.500000,34.900000,68.700000,37.300000,68,39.800000C67.900000,40.300000,68,41,68.300000,41.400000C69,42.200000,69.800000,42.900000,70.700000,43.400000C72.300000,44.400000,72.900000,44.100000,73,42.200000C73.200000,40.100000,73.300000,38,73.500000,35.900000C73.600000,34.500000,73.700000,33,73.800000,31.400000ZM39.700000,31.400000C39.700000,32.100000,39.800000,32.800000,39.800000,33.400000C39.900000,36.200000,40.100000,39.100000,40.200000,41.900000C40.300000,43.300000,40.900000,43.700000,42.200000,43.400000C43.500000,43.100000,44.500000,42.300000,45.300000,41.300000C45.500000,41,45.600000,40.300000,45.500000,39.900000C44.800000,37.400000,44,34.900000,43.200000,32.500000C43.100000,32.200000,42.800000,31.900000,42.500000,31.900000C41.700000,31.600000,40.800000,31.600000,39.700000,31.400000ZM69.400000,31.400000C69.300000,31.400000,69.200000,31.300000,69.100000,31.300000C69,31.400000,68.700000,31.500000,68.700000,31.700000C67.800000,33.800000,66.800000,35.900000,66,38C65.700000,38.800000,66.200000,39.700000,67.200000,40.100000C67.900000,37.100000,68.600000,34.300000,69.400000,31.400000ZM46.400000,40.100000C47.500000,39.200000,47.800000,38.400000,47.400000,37.300000C46.600000,35.500000,45.800000,33.700000,45,31.800000C44.900000,31.500000,44.600000,31.400000,44.400000,31.100000C44.300000,31.200000,44.200000,31.200000,44.100000,31.300000C44.900000,34.300000,45.600000,37.200000,46.400000,40.100000ZM71.700000,31C72.300000,30.800000,72.900000,30.700000,73.400000,30.400000C73.800000,30.200000,73.900000,29.900000,73.600000,29.500000C72.900000,28.700000,71.100000,28.400000,70.100000,28.800000C69.600000,29,69.500000,29.300000,69.700000,29.800000C69.900000,30.500000,70.600000,30.900000,71.700000,31ZM42,31C42.500000,30.800000,43.100000,30.600000,43.500000,30.300000C43.800000,30.100000,44,29.600000,43.900000,29.300000C43.800000,29,43.300000,28.700000,43,28.700000C42,28.900000,41.100000,29.100000,40.100000,29.500000C39.600000,29.700000,39.600000,30.200000,40.200000,30.500000C40.700000,30.700000,41.300000,30.800000,42,31ZM39.700000,44.900000C38.700000,45.700000,39,52.700000,40,53.700000C39.900000,50.700000,39.800000,47.900000,39.700000,44.900000ZM73.500000,53.600000C73.600000,53.600000,73.600000,53.600000,73.700000,53.600000C73.800000,53.400000,74,53.300000,74,53.100000C74.100000,50.500000,74.300000,47.900000,74.400000,45.400000C74.400000,45.200000,74.200000,45.100000,73.900000,44.700000C73.700000,47.900000,73.600000,50.700000,73.500000,53.600000Z" fill="rgb(16,35,60)" stroke="none" stroke-width="1"/><path id="ebRMjyzZ6i167" d="M66.100000,61.900000C65.800000,61.500000,65.700000,61.200000,65.500000,60.900000C65.100000,60.100000,64.900000,60.100000,64.300000,60.800000C64.100000,61.100000,63.800000,61.400000,63.500000,61.800000C63.300000,61.500000,63.100000,61.200000,63,61C62.400000,60,62.200000,60,61.500000,60.900000C61.300000,61.100000,61.100000,61.400000,60.800000,61.800000C60.500000,61.400000,60.300000,61,60.100000,60.700000C59.800000,60.100000,59.500000,60.100000,59.100000,60.600000C58.800000,61,58.600000,61.300000,58.200000,61.800000C57.900000,61.300000,57.700000,61,57.500000,60.600000C57.200000,60.100000,56.700000,60.100000,56.400000,60.600000C56.200000,60.900000,56,61.200000,55.900000,61.500000C55.900000,61.500000,55.800000,61.600000,55.700000,61.600000C55.400000,61.300000,55.200000,60.900000,54.900000,60.600000C54.400000,60,54.200000,60,53.800000,60.700000C53.600000,61,53.400000,61.300000,53.200000,61.700000C52.800000,61.200000,52.500000,60.900000,52.300000,60.500000C52,60.100000,51.500000,60.100000,51.200000,60.600000C51,60.900000,50.800000,61.300000,50.500000,61.700000C50.500000,61.700000,50.500000,61.700000,50.500000,61.700000C50.200000,61.300000,49.900000,60.900000,49.600000,60.600000C49.300000,60.200000,48.800000,60.200000,48.500000,60.700000C48.300000,61,48.100000,61.300000,47.900000,61.700000C47.900000,61.700000,47.900000,61.700000,47.900000,61.700000L46.500000,60.100000C46.400000,60.400000,46.300000,60.600000,46.300000,60.700000C46.700000,61.400000,47.100000,62.100000,47.600000,62.700000C47.700000,62.800000,48.200000,62.700000,48.300000,62.500000C48.600000,62.200000,48.800000,61.700000,49.100000,61.200000C49.400000,61.700000,49.700000,62.100000,49.900000,62.400000C50.200000,62.800000,50.700000,62.800000,51,62.400000C51.200000,62,51.400000,61.600000,51.700000,61.100000C52.100000,61.600000,52.300000,62.100000,52.600000,62.500000C52.900000,63,53.300000,63,53.600000,62.500000C53.800000,62.100000,54.100000,61.700000,54.400000,61.200000C54.700000,61.700000,55,62,55.200000,62.300000C55.700000,63,55.900000,62.900000,56.400000,62.200000C56.600000,61.900000,56.700000,61.600000,57,61.200000C57.300000,61.700000,57.500000,62,57.700000,62.400000C58,62.900000,58.400000,63,58.700000,62.400000C59,62,59.200000,61.700000,59.500000,61.100000C59.800000,61.500000,60,61.800000,60.100000,62.100000C60.600000,62.900000,60.800000,62.900000,61.400000,62.200000C61.600000,61.900000,61.900000,61.500000,62.200000,61.100000C62.500000,61.600000,62.700000,62,62.900000,62.300000C63.300000,63,63.600000,63,64.100000,62.400000C64.300000,62.100000,64.600000,61.700000,64.900000,61.200000C65.200000,61.700000,65.400000,62,65.600000,62.400000C66,63,66.300000,63,66.700000,62.500000C67,62,67.400000,61.600000,67.600000,61.100000C67.700000,60.900000,67.700000,60.600000,67.700000,60.300000C67.600000,60.300000,67.600000,60.200000,67.500000,60.200000C67.300000,60.400000,67,60.600000,66.800000,60.900000C66.500000,61.300000,66.300000,61.500000,66.100000,61.900000Z" fill="rgb(255,255,255)" stroke="none" stroke-width="1"/><path id="ebRMjyzZ6i168" d="M47.900000,47.100000C48.200000,43,49.300000,39.900000,52.600000,38.100000C56.300000,36,62.200000,36.800000,64.600000,42C66.300000,45.800000,66.100000,49.500000,63.600000,52.900000C59.500000,58.300000,51.600000,57.100000,49,50.800000C48.300000,49.300000,48.100000,47.900000,47.900000,47.100000ZM56.700000,37.700000C54.800000,37.600000,53,38.100000,51.500000,39.500000C48.200000,42.400000,47.400000,47.300000,49.600000,51.300000C52.200000,56,57.900000,57.100000,61.900000,53.600000C64,51.800000,64.900000,49.400000,65,46.600000C65.300000,41.700000,61.400000,37.300000,56.700000,37.700000Z" fill="rgb(0,0,0)" stroke="none" stroke-width="1"/><path id="ebRMjyzZ6i169" d="M57.100000,43.200000C55.500000,43,54.100000,43,52.700000,43.600000C52.400000,43.800000,51.600000,43.600000,51.400000,43.300000C51.200000,42.900000,51.100000,42.200000,51.300000,41.800000C51.800000,40.700000,52.700000,39.800000,53.900000,39.300000C56.200000,38.400000,58.400000,38.400000,60.500000,39.800000C61.300000,40.300000,61.500000,41.100000,61.200000,41.800000C61,42.300000,60.400000,42.700000,59.900000,42.800000C59,43.200000,58,43.200000,57.100000,43.200000Z" fill="rgb(255,255,255)" stroke="none" stroke-width="1"/><path id="ebRMjyzZ6i170" d="M51.100000,45C51.100000,45.800000,50.600000,46.400000,50,46.300000C49.300000,46.300000,49.200000,45.800000,49.100000,45.200000C49.100000,44.500000,49.500000,43.900000,50.100000,43.900000C50.800000,44,51.100000,44.500000,51.100000,45Z" fill="rgb(255,255,255)" stroke="none" stroke-width="1"/><g id="ebRMjyzZ6i171"><g id="ebRMjyzZ6i172" transform="matrix(1 0 0 1 -355 -306)"><g id="ebRMjyzZ6i173" transform="matrix(1 0 0 1 355.81099999999998 306)"><path id="ebRMjyzZ6i174" d="M56.400000,75.600000C56.200000,75.600000,56,75.500000,56,75.400000L56,73.800000C56,73.700000,56.200000,73.600000,56.400000,73.600000C56.600000,73.600000,56.800000,73.700000,56.800000,73.800000L56.800000,75.400000C56.800000,75.500000,56.600000,75.600000,56.400000,75.600000" clip-rule="evenodd" fill="rgb(16,35,60)" fill-rule="evenodd" stroke="none" stroke-width="1"/><line id="ebRMjyzZ6i175" x1="55.800000" y1="77.100000" x2="57" y2="77.100000" fill="none" stroke="none" stroke-width="1"/><path id="ebRMjyzZ6i176" d="M56.600000,86.800000C53.300000,86.800000,50.600000,84.100000,50.600000,80.800000C50.600000,77.500000,53.300000,74.800000,56.600000,74.800000C58.200000,74.800000,59.700000,75.400000,60.800000,76.600000L61.200000,77L59.500000,78.600000L58.800000,77.800000L59.700000,77C58.800000,76.300000,57.800000,75.900000,56.600000,75.900000C53.900000,75.900000,51.700000,78.100000,51.700000,80.800000C51.700000,83.500000,53.900000,85.700000,56.600000,85.700000" clip-rule="evenodd" fill="rgb(16,35,60)" fill-rule="evenodd" stroke="none" stroke-width="1"/><path id="ebRMjyzZ6i177" d="M59.600000,83.700000L58.800000,83C59.400000,82.400000,59.700000,81.600000,59.700000,80.800000C59.700000,80,59.400000,79.200000,58.800000,78.600000L58.400000,78.200000L58.800000,77.800000L59.200000,78.200000L59.500000,77.800000C60.300000,78.600000,60.800000,79.700000,60.800000,80.800000C60.800000,81.900000,60.400000,82.900000,59.600000,83.700000" clip-rule="evenodd" fill="rgb(67,173,134)" fill-rule="evenodd" stroke="none" stroke-width="1"/><path id="ebRMjyzZ6i178" d="M56.600000,80.100000C56.200000,80.100000,55.900000,80.400000,55.900000,80.800000C55.900000,81.200000,56.200000,81.500000,56.600000,81.500000C57,81.500000,57.300000,81.200000,57.300000,80.800000C57.300000,80.400000,57,80.100000,56.600000,80.100000M56.600000,82.500000C55.600000,82.500000,54.800000,81.700000,54.800000,80.700000C54.800000,79.700000,55.600000,78.900000,56.600000,78.900000C57.600000,78.900000,58.400000,79.700000,58.400000,80.700000C58.400000,81.700000,57.600000,82.500000,56.600000,82.500000" clip-rule="evenodd" fill="rgb(16,35,60)" fill-rule="evenodd" stroke="none" stroke-width="1"/><line id="ebRMjyzZ6i179" x1="60.500000" y1="76.900000" x2="57.400000" y2="79.800000" fill="none" stroke="none" stroke-width="1"/><polygon id="ebRMjyzZ6i180" points="57.700000,80.200000 57,79.400000 60.100000,76.500000 60.800000,77.300000" clip-rule="evenodd" fill="rgb(16,35,60)" fill-rule="evenodd" stroke="none" stroke-width="1"/><polygon id="ebRMjyzZ6i181" points="61.200000,86.800000 56.500000,86.800000 56.500000,85.700000 60.100000,85.700000 60.100000,84.700000 56.900000,82.300000 57.500000,81.400000 61.200000,84.200000" clip-rule="evenodd" fill="rgb(16,35,60)" fill-rule="evenodd" stroke="none" stroke-width="1"/><path id="ebRMjyzZ6i182" d="M54.500000,78.500000C54.300000,78.500000,54.100000,78.300000,54.100000,78.100000L54.100000,74C54.100000,73.800000,54.300000,73.600000,54.500000,73.600000C54.700000,73.600000,54.900000,73.800000,54.900000,74L54.900000,78.200000C54.900000,78.400000,54.800000,78.500000,54.500000,78.500000" clip-rule="evenodd" fill="rgb(16,35,60)" fill-rule="evenodd" stroke="none" stroke-width="1"/></g></g></g></g></svg>